G04*
G04 #@! TF.GenerationSoftware,Altium Limited,Altium Designer,21.3.1 (25)*
G04*
G04 Layer_Color=255*
%FSLAX44Y44*%
%MOMM*%
G71*
G04*
G04 #@! TF.SameCoordinates,1899EECA-0796-468C-8384-63A2F62C21E4*
G04*
G04*
G04 #@! TF.FilePolarity,Positive*
G04*
G01*
G75*
%ADD26C,1.3500*%
%ADD27C,1.8000*%
%ADD28C,2.0000*%
%ADD29C,1.5000*%
%ADD30R,1.3500X1.3500*%
%ADD31C,1.4000*%
%ADD32C,4.5000*%
%ADD33R,1.4000X1.4000*%
%ADD34R,1.4000X1.4000*%
D26*
X129400Y192250D02*
D03*
X154800Y179550D02*
D03*
Y204950D02*
D03*
X129400Y217650D02*
D03*
X154800Y230350D02*
D03*
X129400Y243050D02*
D03*
X154800Y255750D02*
D03*
D27*
X66000Y281150D02*
D03*
Y166850D02*
D03*
D28*
X96500Y146500D02*
D03*
Y301500D02*
D03*
D29*
X32200Y160750D02*
D03*
X17000Y186150D02*
D03*
X32200Y261850D02*
D03*
X17000Y287250D02*
D03*
D30*
X129400Y268450D02*
D03*
D31*
X240000Y135000D02*
D03*
Y155000D02*
D03*
Y175000D02*
D03*
Y195000D02*
D03*
Y235000D02*
D03*
Y215000D02*
D03*
X122420Y403920D02*
D03*
X240000Y335000D02*
D03*
Y315000D02*
D03*
Y295000D02*
D03*
Y275000D02*
D03*
Y255000D02*
D03*
D32*
X230000Y420000D02*
D03*
Y30000D02*
D03*
X30000D02*
D03*
Y420000D02*
D03*
D33*
X97020Y403920D02*
D03*
D34*
X240000Y115000D02*
D03*
M02*
