G04*
G04 #@! TF.GenerationSoftware,Altium Limited,Altium Designer,21.3.1 (25)*
G04*
G04 Layer_Color=65535*
%FSLAX44Y44*%
%MOMM*%
G71*
G04*
G04 #@! TF.SameCoordinates,1899EECA-0796-468C-8384-63A2F62C21E4*
G04*
G04*
G04 #@! TF.FilePolarity,Positive*
G04*
G01*
G75*
%ADD10C,0.2540*%
%ADD11C,0.2000*%
%ADD12C,0.1000*%
%ADD13C,0.2500*%
%ADD14R,0.2410X1.2000*%
G36*
X235000Y100000D02*
X245000D01*
X240000Y105000D01*
X235000Y100000D01*
D02*
G37*
G36*
X84120Y404320D02*
X80720Y407720D01*
Y400920D01*
X84120Y404320D01*
D02*
G37*
D10*
X-42900Y144500D02*
X174300D01*
X-42900Y303500D02*
X174300D01*
Y144500D02*
Y303500D01*
X-42900Y144500D02*
Y303500D01*
D11*
X102749Y93251D02*
X113749D01*
X102749Y112251D02*
X113749D01*
D12*
X148751Y401251D02*
Y412251D01*
Y401251D02*
X176751D01*
X164529Y402941D02*
Y410561D01*
X160719Y406751D02*
X164529Y410561D01*
X160719Y406751D02*
X164529Y402941D01*
X176751Y401251D02*
Y412251D01*
X148751D02*
X176751D01*
X84249Y332749D02*
Y343749D01*
X56249D02*
X84249D01*
X68471Y334439D02*
Y342059D01*
Y334439D02*
X72281Y338249D01*
X68471Y342059D02*
X72281Y338249D01*
X56249Y332749D02*
Y343749D01*
Y332749D02*
X84249D01*
X84249Y316749D02*
Y327749D01*
X56249D02*
X84249D01*
X68471Y318439D02*
Y326059D01*
Y318439D02*
X72281Y322249D01*
X68471Y326059D02*
X72281Y322249D01*
X56249Y316749D02*
Y327749D01*
Y316749D02*
X84249D01*
X84249Y350749D02*
Y361749D01*
X56249D02*
X84249D01*
X68471Y352439D02*
Y360059D01*
Y352439D02*
X72281Y356249D01*
X68471Y360059D02*
X72281Y356249D01*
X56249Y350749D02*
Y361749D01*
Y350749D02*
X84249D01*
X84249Y366749D02*
Y377749D01*
X56249D02*
X84249D01*
X68471Y368439D02*
Y376059D01*
Y368439D02*
X72281Y372249D01*
X68471Y376059D02*
X72281Y372249D01*
X56249Y366749D02*
Y377749D01*
Y366749D02*
X84249D01*
X202484Y344527D02*
Y372277D01*
X191484Y344527D02*
X202484D01*
X199484Y372277D02*
X202484D01*
X191484Y344527D02*
Y372277D01*
X194484D01*
X193984D02*
X199984D01*
X195714Y357257D02*
Y359797D01*
X198254Y357257D02*
Y359797D01*
X191609Y358527D02*
X195714D01*
X198254D02*
X202359D01*
X205790Y344710D02*
Y372460D01*
X216790D01*
X205790Y344710D02*
X208790D01*
X216790D02*
Y372460D01*
X213790Y344710D02*
X216790D01*
X208290D02*
X214290D01*
X212560Y357190D02*
Y359730D01*
X210020Y357190D02*
Y359730D01*
X212560Y358460D02*
X216665D01*
X205915D02*
X210020D01*
X187516Y196471D02*
Y224221D01*
X198516D01*
X187516Y196471D02*
X190516D01*
X198516D02*
Y224221D01*
X195516Y196471D02*
X198516D01*
X190016D02*
X196016D01*
X194286Y208951D02*
Y211491D01*
X191746Y208951D02*
Y211491D01*
X194286Y210221D02*
X198391D01*
X187641D02*
X191746D01*
X149249Y381749D02*
X176999D01*
X149249D02*
Y392749D01*
X176999Y381749D02*
Y384749D01*
X163249Y381749D02*
Y383539D01*
X161979Y384709D02*
X163249Y383439D01*
X149249Y392749D02*
X176999D01*
X163249Y391059D02*
Y392749D01*
X176999Y389749D02*
Y392749D01*
Y384249D02*
Y390249D01*
X161979Y389789D02*
X163249Y391059D01*
X161979Y389789D02*
X164519Y387249D01*
X161979Y384709D02*
X164519Y387249D01*
X102249Y334249D02*
X129999D01*
X102249D02*
Y345249D01*
X129999Y334249D02*
Y337249D01*
X116249Y334249D02*
Y336039D01*
X114979Y337209D02*
X116249Y335939D01*
X102249Y345249D02*
X129999D01*
X116249Y343559D02*
Y345249D01*
X129999Y342249D02*
Y345249D01*
Y336749D02*
Y342749D01*
X114979Y342289D02*
X116249Y343559D01*
X114979Y342289D02*
X117519Y339749D01*
X114979Y337209D02*
X117519Y339749D01*
X84320Y391220D02*
Y416620D01*
Y403920D02*
Y404320D01*
X135120Y391220D02*
Y416620D01*
X84320Y391220D02*
X135120D01*
X109720D02*
Y416620D01*
X84320D02*
X135120D01*
X84120Y404320D02*
X84320D01*
X80720Y407920D02*
X84320Y404320D01*
X80720Y400920D02*
X84120Y404320D01*
X80720Y400920D02*
Y407920D01*
X230000Y125000D02*
X250000D01*
X240000Y105000D02*
X245000Y100000D01*
X235000D02*
X245000D01*
X235000D02*
X240000Y105000D01*
Y105000D01*
X230000Y345000D02*
X250000D01*
X250000Y105000D02*
Y345000D01*
X230000Y105000D02*
Y345000D01*
Y105000D02*
X250000D01*
X114979Y362209D02*
X117519Y364749D01*
X114979Y367289D02*
X117519Y364749D01*
X114979Y367289D02*
X116249Y368559D01*
X129999Y361749D02*
Y367749D01*
Y367249D02*
Y370249D01*
X116249Y368559D02*
Y370249D01*
X102249D02*
X129999D01*
X114979Y362209D02*
X116249Y360939D01*
Y359249D02*
Y361039D01*
X129999Y359249D02*
Y362249D01*
X102249Y359249D02*
Y370249D01*
Y359249D02*
X129999D01*
X114979Y349709D02*
X117519Y352249D01*
X114979Y354789D02*
X117519Y352249D01*
X114979Y354789D02*
X116249Y356059D01*
X129999Y349249D02*
Y355249D01*
Y354749D02*
Y357749D01*
X116249Y356059D02*
Y357749D01*
X102249D02*
X129999D01*
X114979Y349709D02*
X116249Y348439D01*
Y346749D02*
Y348539D01*
X129999Y346749D02*
Y349749D01*
X102249Y346749D02*
Y357749D01*
Y346749D02*
X129999D01*
X114979Y324209D02*
X117519Y326749D01*
X114979Y329289D02*
X117519Y326749D01*
X114979Y329289D02*
X116249Y330559D01*
X129999Y323749D02*
Y329749D01*
Y329249D02*
Y332249D01*
X116249Y330559D02*
Y332249D01*
X102249D02*
X129999D01*
X114979Y324209D02*
X116249Y322939D01*
Y321249D02*
Y323039D01*
X129999Y321249D02*
Y324249D01*
X102249Y321249D02*
Y332249D01*
Y321249D02*
X129999D01*
D13*
X39668Y122001D02*
Y129999D01*
X43667D01*
X45000Y128666D01*
Y126000D01*
X43667Y124667D01*
X39668D01*
X47666Y122001D02*
X50332D01*
X48999D01*
Y129999D01*
X47666Y128666D01*
X132065Y282420D02*
X132446Y281658D01*
X133588Y280516D01*
X125590D01*
X157084Y271879D02*
X157465D01*
X158227Y271498D01*
X158607Y271117D01*
X158988Y270356D01*
Y268832D01*
X158607Y268070D01*
X158227Y267690D01*
X157465Y267309D01*
X156703D01*
X155941Y267690D01*
X154799Y268451D01*
X150990Y272260D01*
Y266928D01*
X158988Y167486D02*
X158607Y168628D01*
X157846Y169009D01*
X157084D01*
X156322Y168628D01*
X155941Y167866D01*
X155560Y166343D01*
X155180Y165200D01*
X154418Y164439D01*
X153656Y164058D01*
X152514D01*
X151752Y164439D01*
X151371Y164820D01*
X150990Y165962D01*
Y167486D01*
X151371Y168628D01*
X151752Y169009D01*
X152514Y169390D01*
X153656D01*
X154418Y169009D01*
X155180Y168247D01*
X155560Y167105D01*
X155941Y165581D01*
X156322Y164820D01*
X157084Y164439D01*
X157846D01*
X158607Y164820D01*
X158988Y165962D01*
Y167486D01*
X133588Y176758D02*
X125590Y180567D01*
X133588Y182090D02*
Y176758D01*
X10012Y326500D02*
Y318502D01*
X14583D01*
X15459Y326500D02*
Y318502D01*
X17135Y326500D02*
Y318502D01*
Y326500D02*
X22467Y318502D01*
Y326500D02*
Y318502D01*
X24676Y326500D02*
Y318502D01*
X30008Y326500D02*
X24676Y321168D01*
X26580Y323072D02*
X30008Y318502D01*
X31798Y323834D02*
Y318502D01*
Y322310D02*
X32941Y323453D01*
X33702Y323834D01*
X34845D01*
X35607Y323453D01*
X35988Y322310D01*
Y318502D01*
X206973Y337500D02*
X211163D01*
X208878Y334453D01*
X210020D01*
X210782Y334072D01*
X211163Y333691D01*
X211544Y332549D01*
Y331787D01*
X211163Y330644D01*
X210401Y329883D01*
X209259Y329502D01*
X208116D01*
X206973Y329883D01*
X206593Y330263D01*
X206212Y331025D01*
X213334Y337500D02*
X216381Y329502D01*
X219428Y337500D02*
X216381Y329502D01*
X221218Y337500D02*
X225408D01*
X223122Y334453D01*
X224265D01*
X225027Y334072D01*
X225408Y333691D01*
X225788Y332549D01*
Y331787D01*
X225408Y330644D01*
X224646Y329883D01*
X223503Y329502D01*
X222361D01*
X221218Y329883D01*
X220837Y330263D01*
X220456Y331025D01*
X153973Y424500D02*
X158163D01*
X155878Y421453D01*
X157020D01*
X157782Y421072D01*
X158163Y420691D01*
X158544Y419549D01*
Y418787D01*
X158163Y417644D01*
X157401Y416883D01*
X156259Y416502D01*
X155116D01*
X153973Y416883D01*
X153593Y417263D01*
X153212Y418025D01*
X160334Y424500D02*
X163381Y416502D01*
X166428Y424500D02*
X163381Y416502D01*
X168218Y424500D02*
X172407D01*
X170122Y421453D01*
X171265D01*
X172027Y421072D01*
X172407Y420691D01*
X172788Y419549D01*
Y418787D01*
X172407Y417644D01*
X171646Y416883D01*
X170503Y416502D01*
X169361D01*
X168218Y416883D01*
X167837Y417263D01*
X167456Y418025D01*
X14554Y341357D02*
X13792Y342119D01*
X12650Y342500D01*
X11126D01*
X9984Y342119D01*
X9222Y341357D01*
Y340596D01*
X9603Y339834D01*
X9984Y339453D01*
X10745Y339072D01*
X13031Y338310D01*
X13792Y337930D01*
X14173Y337549D01*
X14554Y336787D01*
Y335644D01*
X13792Y334883D01*
X12650Y334502D01*
X11126D01*
X9984Y334883D01*
X9222Y335644D01*
X16344Y338310D02*
X19772D01*
X20914Y338691D01*
X21295Y339072D01*
X21676Y339834D01*
Y340976D01*
X21295Y341738D01*
X20914Y342119D01*
X19772Y342500D01*
X16344D01*
Y334502D01*
X23466Y342500D02*
Y334502D01*
Y342500D02*
X26133D01*
X27275Y342119D01*
X28037Y341357D01*
X28418Y340596D01*
X28799Y339453D01*
Y337549D01*
X28418Y336406D01*
X28037Y335644D01*
X27275Y334883D01*
X26133Y334502D01*
X23466D01*
X30589Y339834D02*
Y334502D01*
Y338310D02*
X31731Y339453D01*
X32493Y339834D01*
X33636D01*
X34397Y339453D01*
X34778Y338310D01*
Y334502D01*
X14935Y373596D02*
X14554Y374357D01*
X13792Y375119D01*
X13031Y375500D01*
X11507D01*
X10745Y375119D01*
X9984Y374357D01*
X9603Y373596D01*
X9222Y372453D01*
Y370549D01*
X9603Y369406D01*
X9984Y368644D01*
X10745Y367883D01*
X11507Y367502D01*
X13031D01*
X13792Y367883D01*
X14554Y368644D01*
X14935Y369406D01*
X19467Y375500D02*
X18706Y375119D01*
X17944Y374357D01*
X17563Y373596D01*
X17182Y372453D01*
Y370549D01*
X17563Y369406D01*
X17944Y368644D01*
X18706Y367883D01*
X19467Y367502D01*
X20991D01*
X21753Y367883D01*
X22514Y368644D01*
X22895Y369406D01*
X23276Y370549D01*
Y372453D01*
X22895Y373596D01*
X22514Y374357D01*
X21753Y375119D01*
X20991Y375500D01*
X19467D01*
X25142D02*
Y367502D01*
X29713D01*
X30589Y372834D02*
Y367502D01*
Y371310D02*
X31731Y372453D01*
X32493Y372834D01*
X33636D01*
X34397Y372453D01*
X34778Y371310D01*
Y367502D01*
X14897Y351502D02*
X11850Y359500D01*
X8803Y351502D01*
X9945Y354168D02*
X13754D01*
X22476Y357596D02*
X22095Y358357D01*
X21333Y359119D01*
X20572Y359500D01*
X19048D01*
X18286Y359119D01*
X17525Y358357D01*
X17144Y357596D01*
X16763Y356453D01*
Y354549D01*
X17144Y353406D01*
X17525Y352644D01*
X18286Y351883D01*
X19048Y351502D01*
X20572D01*
X21333Y351883D01*
X22095Y352644D01*
X22476Y353406D01*
X27389Y359500D02*
Y351502D01*
X24723Y359500D02*
X30055D01*
X31008Y356834D02*
Y351502D01*
Y355310D02*
X32150Y356453D01*
X32912Y356834D01*
X34055D01*
X34816Y356453D01*
X35197Y355310D01*
Y351502D01*
X88973Y426500D02*
X93163D01*
X90878Y423453D01*
X92020D01*
X92782Y423072D01*
X93163Y422691D01*
X93544Y421549D01*
Y420787D01*
X93163Y419644D01*
X92401Y418883D01*
X91259Y418502D01*
X90116D01*
X88973Y418883D01*
X88593Y419263D01*
X88212Y420025D01*
X95334Y426500D02*
X98381Y418502D01*
X101428Y426500D02*
X98381Y418502D01*
X103218Y426500D02*
X107408D01*
X105122Y423453D01*
X106265D01*
X107027Y423072D01*
X107408Y422691D01*
X107788Y421549D01*
Y420787D01*
X107408Y419644D01*
X106646Y418883D01*
X105503Y418502D01*
X104361D01*
X103218Y418883D01*
X102837Y419263D01*
X102456Y420025D01*
X119506Y425596D02*
X119125Y426357D01*
X118363Y427119D01*
X117601Y427500D01*
X116078D01*
X115316Y427119D01*
X114554Y426357D01*
X114173Y425596D01*
X113793Y424453D01*
Y422549D01*
X114173Y421406D01*
X114554Y420644D01*
X115316Y419883D01*
X116078Y419502D01*
X117601D01*
X118363Y419883D01*
X119125Y420644D01*
X119506Y421406D01*
Y422549D01*
X117601D02*
X119506D01*
X121334Y427500D02*
Y419502D01*
Y427500D02*
X126666Y419502D01*
Y427500D02*
Y419502D01*
X128875Y427500D02*
Y419502D01*
Y427500D02*
X131541D01*
X132684Y427119D01*
X133446Y426357D01*
X133827Y425596D01*
X134207Y424453D01*
Y422549D01*
X133827Y421406D01*
X133446Y420644D01*
X132684Y419883D01*
X131541Y419502D01*
X128875D01*
X19500Y71831D02*
X21880Y61833D01*
X24261Y71831D02*
X21880Y61833D01*
X24261Y71831D02*
X26641Y61833D01*
X29022Y71831D02*
X26641Y61833D01*
X31021Y71831D02*
Y61833D01*
X39781Y71831D02*
X33116Y61833D01*
Y71831D02*
X39781D01*
X33116Y61833D02*
X39781D01*
X47732Y71831D02*
X42971D01*
X42495Y67546D01*
X42971Y68022D01*
X44399Y68498D01*
X45828D01*
X47256Y68022D01*
X48208Y67070D01*
X48684Y65641D01*
Y64689D01*
X48208Y63261D01*
X47256Y62309D01*
X45828Y61833D01*
X44399D01*
X42971Y62309D01*
X42495Y62785D01*
X42019Y63737D01*
X53778Y71831D02*
X52350Y71354D01*
X51398Y69926D01*
X50922Y67546D01*
Y66117D01*
X51398Y63737D01*
X52350Y62309D01*
X53778Y61833D01*
X54731D01*
X56159Y62309D01*
X57111Y63737D01*
X57587Y66117D01*
Y67546D01*
X57111Y69926D01*
X56159Y71354D01*
X54731Y71831D01*
X53778D01*
X62681D02*
X61253Y71354D01*
X60301Y69926D01*
X59825Y67546D01*
Y66117D01*
X60301Y63737D01*
X61253Y62309D01*
X62681Y61833D01*
X63633D01*
X65062Y62309D01*
X66014Y63737D01*
X66490Y66117D01*
Y67546D01*
X66014Y69926D01*
X65062Y71354D01*
X63633Y71831D01*
X62681D01*
X75393Y70402D02*
X74441Y71354D01*
X73012Y71831D01*
X71108D01*
X69680Y71354D01*
X68727Y70402D01*
Y69450D01*
X69204Y68498D01*
X69680Y68022D01*
X70632Y67546D01*
X73488Y66593D01*
X74441Y66117D01*
X74917Y65641D01*
X75393Y64689D01*
Y63261D01*
X74441Y62309D01*
X73012Y61833D01*
X71108D01*
X69680Y62309D01*
X68727Y63261D01*
X77630Y71831D02*
Y61833D01*
Y71831D02*
X81915D01*
X83343Y71354D01*
X83820Y70878D01*
X84296Y69926D01*
Y68974D01*
X83820Y68022D01*
X83343Y67546D01*
X81915Y67070D01*
X77630D01*
X80963D02*
X84296Y61833D01*
X86533Y66117D02*
X95103D01*
X98055Y71831D02*
Y61833D01*
Y71831D02*
X102339D01*
X103768Y71354D01*
X104244Y70878D01*
X104720Y69926D01*
Y68974D01*
X104244Y68022D01*
X103768Y67546D01*
X102339Y67070D01*
X98055D01*
X101387D02*
X104720Y61833D01*
X106957Y66593D02*
X111242D01*
X112670Y67070D01*
X113146Y67546D01*
X113623Y68498D01*
Y69926D01*
X113146Y70878D01*
X112670Y71354D01*
X111242Y71831D01*
X106957D01*
Y61833D01*
X129905Y71831D02*
X123716D01*
Y61833D01*
X129905D01*
X123716Y67070D02*
X127524D01*
X131571Y71831D02*
X135380Y61833D01*
X139189Y71831D02*
X135380Y61833D01*
X140474Y71831D02*
Y61833D01*
Y71831D02*
X144759D01*
X146187Y71354D01*
X146663Y70878D01*
X147139Y69926D01*
Y68974D01*
X146663Y68022D01*
X146187Y67546D01*
X144759Y67070D01*
X140474D02*
X144759D01*
X146187Y66593D01*
X146663Y66117D01*
X147139Y65165D01*
Y63737D01*
X146663Y62785D01*
X146187Y62309D01*
X144759Y61833D01*
X140474D01*
X157232Y71831D02*
X161041Y61833D01*
X164850Y71831D02*
X161041Y61833D01*
X166135Y69926D02*
X167087Y70402D01*
X168516Y71831D01*
Y61833D01*
X173467Y69926D02*
X174419Y70402D01*
X175847Y71831D01*
Y61833D01*
X183655Y71831D02*
X182227Y71354D01*
X181275Y69926D01*
X180799Y67546D01*
Y66117D01*
X181275Y63737D01*
X182227Y62309D01*
X183655Y61833D01*
X184607D01*
X186036Y62309D01*
X186988Y63737D01*
X187464Y66117D01*
Y67546D01*
X186988Y69926D01*
X186036Y71354D01*
X184607Y71831D01*
X183655D01*
X193034Y73735D02*
X192082Y72783D01*
X191130Y71354D01*
X190178Y69450D01*
X189702Y67070D01*
Y65165D01*
X190178Y62785D01*
X191130Y60880D01*
X192082Y59452D01*
X193034Y58500D01*
X192082Y72783D02*
X191130Y70878D01*
X190654Y69450D01*
X190178Y67070D01*
Y65165D01*
X190654Y62785D01*
X191130Y61357D01*
X192082Y59452D01*
X194939Y71831D02*
Y61833D01*
Y71831D02*
X199223D01*
X200652Y71354D01*
X201128Y70878D01*
X201604Y69926D01*
Y68974D01*
X201128Y68022D01*
X200652Y67546D01*
X199223Y67070D01*
X194939D01*
X198271D02*
X201604Y61833D01*
X208602Y71831D02*
Y64213D01*
X208126Y62785D01*
X207650Y62309D01*
X206698Y61833D01*
X205746D01*
X204793Y62309D01*
X204317Y62785D01*
X203841Y64213D01*
Y65165D01*
X215934Y71831D02*
X211173Y65165D01*
X218314D01*
X215934Y71831D02*
Y61833D01*
X225789Y71831D02*
X221028D01*
X220552Y67546D01*
X221028Y68022D01*
X222456Y68498D01*
X223885D01*
X225313Y68022D01*
X226265Y67070D01*
X226741Y65641D01*
Y64689D01*
X226265Y63261D01*
X225313Y62309D01*
X223885Y61833D01*
X222456D01*
X221028Y62309D01*
X220552Y62785D01*
X220076Y63737D01*
X228979Y73735D02*
X229931Y72783D01*
X230883Y71354D01*
X231835Y69450D01*
X232311Y67070D01*
Y65165D01*
X231835Y62785D01*
X230883Y60880D01*
X229931Y59452D01*
X228979Y58500D01*
X229931Y72783D02*
X230883Y70878D01*
X231359Y69450D01*
X231835Y67070D01*
Y65165D01*
X231359Y62785D01*
X230883Y61357D01*
X229931Y59452D01*
X200497Y138665D02*
Y130667D01*
Y138665D02*
X203925D01*
X205067Y138284D01*
X205448Y137903D01*
X205829Y137141D01*
Y136380D01*
X205448Y135618D01*
X205067Y135237D01*
X203925Y134856D01*
X200497D01*
X203163D02*
X205829Y130667D01*
X207619Y138665D02*
X212951Y130667D01*
Y138665D02*
X207619Y130667D01*
X214741Y128000D02*
X220835D01*
X221864Y138665D02*
Y130667D01*
Y138665D02*
X227196Y130667D01*
Y138665D02*
Y130667D01*
X200497Y161165D02*
Y153167D01*
Y161165D02*
X203925D01*
X205067Y160784D01*
X205448Y160403D01*
X205829Y159641D01*
Y158880D01*
X205448Y158118D01*
X205067Y157737D01*
X203925Y157356D01*
X200497D01*
X203163D02*
X205829Y153167D01*
X207619Y161165D02*
X212951Y153167D01*
Y161165D02*
X207619Y153167D01*
X214741Y150500D02*
X220835D01*
X221864Y156975D02*
X225292D01*
X226434Y157356D01*
X226815Y157737D01*
X227196Y158499D01*
Y159641D01*
X226815Y160403D01*
X226434Y160784D01*
X225292Y161165D01*
X221864D01*
Y153167D01*
X211506Y177596D02*
X211125Y178357D01*
X210363Y179119D01*
X209601Y179500D01*
X208078D01*
X207316Y179119D01*
X206554Y178357D01*
X206173Y177596D01*
X205793Y176453D01*
Y174549D01*
X206173Y173406D01*
X206554Y172644D01*
X207316Y171883D01*
X208078Y171502D01*
X209601D01*
X210363Y171883D01*
X211125Y172644D01*
X211506Y173406D01*
Y174549D01*
X209601D02*
X211506D01*
X213334Y179500D02*
Y171502D01*
Y179500D02*
X218666Y171502D01*
Y179500D02*
Y171502D01*
X220875Y179500D02*
Y171502D01*
Y179500D02*
X223541D01*
X224684Y179119D01*
X225446Y178357D01*
X225826Y177596D01*
X226207Y176453D01*
Y174549D01*
X225826Y173406D01*
X225446Y172644D01*
X224684Y171883D01*
X223541Y171502D01*
X220875D01*
X203242Y201165D02*
Y193167D01*
X200576Y201165D02*
X205908D01*
X206860D02*
X212192Y193167D01*
Y201165D02*
X206860Y193167D01*
X213982Y190500D02*
X220076D01*
X221104Y201165D02*
Y193167D01*
Y201165D02*
X226437Y193167D01*
Y201165D02*
Y193167D01*
X207973Y120500D02*
X212163D01*
X209878Y117453D01*
X211020D01*
X211782Y117072D01*
X212163Y116691D01*
X212544Y115549D01*
Y114787D01*
X212163Y113644D01*
X211401Y112883D01*
X210259Y112502D01*
X209116D01*
X207973Y112883D01*
X207593Y113264D01*
X207212Y114025D01*
X214334Y120500D02*
X217381Y112502D01*
X220428Y120500D02*
X217381Y112502D01*
X222218Y120500D02*
X226408D01*
X224122Y117453D01*
X225265D01*
X226027Y117072D01*
X226408Y116691D01*
X226788Y115549D01*
Y114787D01*
X226408Y113644D01*
X225646Y112883D01*
X224503Y112502D01*
X223361D01*
X222218Y112883D01*
X221837Y113264D01*
X221456Y114025D01*
X206317Y317094D02*
X205936Y317856D01*
X205175Y318618D01*
X204413Y318999D01*
X202889D01*
X202128Y318618D01*
X201366Y317856D01*
X200985Y317094D01*
X200604Y315952D01*
Y314047D01*
X200985Y312905D01*
X201366Y312143D01*
X202128Y311381D01*
X202889Y311000D01*
X204413D01*
X205175Y311381D01*
X205936Y312143D01*
X206317Y312905D01*
X210849Y318999D02*
X210088Y318618D01*
X209326Y317856D01*
X208945Y317094D01*
X208564Y315952D01*
Y314047D01*
X208945Y312905D01*
X209326Y312143D01*
X210088Y311381D01*
X210849Y311000D01*
X212373D01*
X213135Y311381D01*
X213897Y312143D01*
X214277Y312905D01*
X214658Y314047D01*
Y315952D01*
X214277Y317094D01*
X213897Y317856D01*
X213135Y318618D01*
X212373Y318999D01*
X210849D01*
X216525D02*
Y311000D01*
X221095D01*
X221971Y316332D02*
Y311000D01*
Y314809D02*
X223113Y315952D01*
X223875Y316332D01*
X225018D01*
X225780Y315952D01*
X226161Y314809D01*
Y311000D01*
X203242Y221165D02*
Y213167D01*
X200576Y221165D02*
X205908D01*
X206860D02*
X212192Y213167D01*
Y221165D02*
X206860Y213167D01*
X213982Y210500D02*
X220076D01*
X221104Y216975D02*
X224532D01*
X225675Y217356D01*
X226056Y217737D01*
X226437Y218499D01*
Y219641D01*
X226056Y220403D01*
X225675Y220784D01*
X224532Y221165D01*
X221104D01*
Y213167D01*
X206799Y237094D02*
X206418Y237856D01*
X205657Y238618D01*
X204895Y238999D01*
X203371D01*
X202610Y238618D01*
X201848Y237856D01*
X201467Y237094D01*
X201086Y235952D01*
Y234047D01*
X201467Y232905D01*
X201848Y232143D01*
X202610Y231381D01*
X203371Y231000D01*
X204895D01*
X205657Y231381D01*
X206418Y232143D01*
X206799Y232905D01*
Y234047D01*
X204895D02*
X206799D01*
X208627Y238999D02*
Y231000D01*
Y238999D02*
X213960Y231000D01*
Y238999D02*
Y231000D01*
X216169Y238999D02*
Y231000D01*
Y238999D02*
X218835D01*
X219977Y238618D01*
X220739Y237856D01*
X221120Y237094D01*
X221501Y235952D01*
Y234047D01*
X221120Y232905D01*
X220739Y232143D01*
X219977Y231381D01*
X218835Y231000D01*
X216169D01*
X205936Y277856D02*
X205175Y278618D01*
X204032Y278999D01*
X202508D01*
X201366Y278618D01*
X200604Y277856D01*
Y277094D01*
X200985Y276332D01*
X201366Y275952D01*
X202128Y275571D01*
X204413Y274809D01*
X205175Y274428D01*
X205555Y274047D01*
X205936Y273286D01*
Y272143D01*
X205175Y271381D01*
X204032Y271000D01*
X202508D01*
X201366Y271381D01*
X200604Y272143D01*
X207726Y274809D02*
X211154D01*
X212297Y275190D01*
X212678Y275571D01*
X213059Y276332D01*
Y277475D01*
X212678Y278237D01*
X212297Y278618D01*
X211154Y278999D01*
X207726D01*
Y271000D01*
X214849Y278999D02*
Y271000D01*
Y278999D02*
X217515D01*
X218657Y278618D01*
X219419Y277856D01*
X219800Y277094D01*
X220181Y275952D01*
Y274047D01*
X219800Y272905D01*
X219419Y272143D01*
X218657Y271381D01*
X217515Y271000D01*
X214849D01*
X221971Y276332D02*
Y271000D01*
Y274809D02*
X223113Y275952D01*
X223875Y276332D01*
X225018D01*
X225780Y275952D01*
X226161Y274809D01*
Y271000D01*
X200565Y258999D02*
Y251000D01*
X205135D01*
X206011Y258999D02*
Y251000D01*
X207687Y258999D02*
Y251000D01*
Y258999D02*
X213019Y251000D01*
Y258999D02*
Y251000D01*
X215228Y258999D02*
Y251000D01*
X220560Y258999D02*
X215228Y253666D01*
X217133Y255571D02*
X220560Y251000D01*
X222351Y256332D02*
Y251000D01*
Y254809D02*
X223493Y255952D01*
X224255Y256332D01*
X225398D01*
X226159Y255952D01*
X226540Y254809D01*
Y251000D01*
X206619Y291000D02*
X203573Y298999D01*
X200525Y291000D01*
X201668Y293666D02*
X205477D01*
X214199Y297094D02*
X213818Y297856D01*
X213056Y298618D01*
X212294Y298999D01*
X210771D01*
X210009Y298618D01*
X209247Y297856D01*
X208867Y297094D01*
X208486Y295952D01*
Y294047D01*
X208867Y292905D01*
X209247Y292143D01*
X210009Y291381D01*
X210771Y291000D01*
X212294D01*
X213056Y291381D01*
X213818Y292143D01*
X214199Y292905D01*
X219112Y298999D02*
Y291000D01*
X216446Y298999D02*
X221778D01*
X222730Y296332D02*
Y291000D01*
Y294809D02*
X223873Y295952D01*
X224635Y296332D01*
X225777D01*
X226539Y295952D01*
X226920Y294809D01*
Y291000D01*
X125876Y125095D02*
X125496Y125857D01*
X124734Y126618D01*
X123972Y126999D01*
X122449D01*
X121687Y126618D01*
X120925Y125857D01*
X120544Y125095D01*
X120163Y123952D01*
Y122048D01*
X120544Y120905D01*
X120925Y120143D01*
X121687Y119382D01*
X122449Y119001D01*
X123972D01*
X124734Y119382D01*
X125496Y120143D01*
X125876Y120905D01*
X131932Y126999D02*
X128124Y121667D01*
X133837D01*
X131932Y126999D02*
Y119001D01*
X181336Y410999D02*
Y403001D01*
X185334D01*
X186667Y404334D01*
Y409666D01*
X185334Y410999D01*
X181336D01*
X194664D02*
X189333D01*
Y407000D01*
X191999Y408333D01*
X193332D01*
X194664Y407000D01*
Y404334D01*
X193332Y403001D01*
X190666D01*
X189333Y404334D01*
X39335Y375999D02*
Y368001D01*
X43334D01*
X44667Y369334D01*
Y374666D01*
X43334Y375999D01*
X39335D01*
X51332Y368001D02*
Y375999D01*
X47333Y372000D01*
X52664D01*
X39335Y359999D02*
Y352001D01*
X43334D01*
X44667Y353334D01*
Y358666D01*
X43334Y359999D01*
X39335D01*
X47333Y358666D02*
X48666Y359999D01*
X51332D01*
X52664Y358666D01*
Y357333D01*
X51332Y356000D01*
X49999D01*
X51332D01*
X52664Y354667D01*
Y353334D01*
X51332Y352001D01*
X48666D01*
X47333Y353334D01*
X40335Y341999D02*
Y334001D01*
X44334D01*
X45667Y335334D01*
Y340666D01*
X44334Y341999D01*
X40335D01*
X53664Y334001D02*
X48333D01*
X53664Y339333D01*
Y340666D01*
X52332Y341999D01*
X49666D01*
X48333Y340666D01*
X41668Y325999D02*
Y318001D01*
X45667D01*
X47000Y319334D01*
Y324666D01*
X45667Y325999D01*
X41668D01*
X49666Y318001D02*
X52332D01*
X50999D01*
Y325999D01*
X49666Y324666D01*
X132273Y342000D02*
Y334002D01*
Y342000D02*
X135701D01*
X136843Y341619D01*
X137224Y341238D01*
X137605Y340476D01*
Y339715D01*
X137224Y338953D01*
X136843Y338572D01*
X135701Y338191D01*
X132273D01*
X134939D02*
X137605Y334002D01*
X139776Y340096D02*
Y340476D01*
X140157Y341238D01*
X140538Y341619D01*
X141299Y342000D01*
X142823D01*
X143585Y341619D01*
X143966Y341238D01*
X144346Y340476D01*
Y339715D01*
X143966Y338953D01*
X143204Y337810D01*
X139395Y334002D01*
X144727D01*
X164773Y378999D02*
Y371001D01*
Y378999D02*
X168201D01*
X169343Y378618D01*
X169724Y378237D01*
X170105Y377476D01*
Y376714D01*
X169724Y375952D01*
X169343Y375571D01*
X168201Y375190D01*
X164773D01*
X167439D02*
X170105Y371001D01*
X176465Y378999D02*
X172657D01*
X172276Y375571D01*
X172657Y375952D01*
X173799Y376333D01*
X174942D01*
X176085Y375952D01*
X176846Y375190D01*
X177227Y374048D01*
Y373286D01*
X176846Y372144D01*
X176085Y371382D01*
X174942Y371001D01*
X173799D01*
X172657Y371382D01*
X172276Y371763D01*
X171895Y372524D01*
X132082Y367000D02*
Y359002D01*
Y367000D02*
X135510D01*
X136653Y366619D01*
X137034Y366238D01*
X137415Y365476D01*
Y364715D01*
X137034Y363953D01*
X136653Y363572D01*
X135510Y363191D01*
X132082D01*
X134748D02*
X137415Y359002D01*
X143013Y367000D02*
X139205Y361668D01*
X144918D01*
X143013Y367000D02*
Y359002D01*
X132273Y354500D02*
Y346502D01*
Y354500D02*
X135701D01*
X136843Y354119D01*
X137224Y353738D01*
X137605Y352976D01*
Y352215D01*
X137224Y351453D01*
X136843Y351072D01*
X135701Y350691D01*
X132273D01*
X134939D02*
X137605Y346502D01*
X140157Y354500D02*
X144346D01*
X142061Y351453D01*
X143204D01*
X143966Y351072D01*
X144346Y350691D01*
X144727Y349549D01*
Y348787D01*
X144346Y347644D01*
X143585Y346883D01*
X142442Y346502D01*
X141299D01*
X140157Y346883D01*
X139776Y347263D01*
X139395Y348025D01*
X133987Y329000D02*
Y321002D01*
Y329000D02*
X137415D01*
X138557Y328619D01*
X138938Y328238D01*
X139319Y327477D01*
Y326715D01*
X138938Y325953D01*
X138557Y325572D01*
X137415Y325191D01*
X133987D01*
X136653D02*
X139319Y321002D01*
X141109Y327477D02*
X141871Y327857D01*
X143013Y329000D01*
Y321002D01*
X239924Y361500D02*
Y355406D01*
X239543Y354263D01*
X239162Y353883D01*
X238400Y353502D01*
X237639D01*
X236877Y353883D01*
X236496Y354263D01*
X236115Y355406D01*
Y356168D01*
X241980Y359977D02*
X242742Y360357D01*
X243885Y361500D01*
Y353502D01*
X75210Y416500D02*
Y410406D01*
X74829Y409263D01*
X74448Y408883D01*
X73686Y408502D01*
X72925D01*
X72163Y408883D01*
X71782Y409263D01*
X71401Y410406D01*
Y411168D01*
X77648Y414596D02*
Y414977D01*
X78028Y415738D01*
X78409Y416119D01*
X79171Y416500D01*
X80695D01*
X81456Y416119D01*
X81837Y415738D01*
X82218Y414977D01*
Y414215D01*
X81837Y413453D01*
X81075Y412310D01*
X77267Y408502D01*
X82599D01*
X195436Y383330D02*
X195055Y384092D01*
X194294Y384853D01*
X193532Y385234D01*
X192008D01*
X191247Y384853D01*
X190485Y384092D01*
X190104Y383330D01*
X189723Y382187D01*
Y380283D01*
X190104Y379140D01*
X190485Y378379D01*
X191247Y377617D01*
X192008Y377236D01*
X193532D01*
X194294Y377617D01*
X195055Y378379D01*
X195436Y379140D01*
X198445Y385234D02*
X202635D01*
X200349Y382187D01*
X201492D01*
X202254Y381806D01*
X202635Y381426D01*
X203015Y380283D01*
Y379521D01*
X202635Y378379D01*
X201873Y377617D01*
X200730Y377236D01*
X199588D01*
X198445Y377617D01*
X198064Y377998D01*
X197683Y378759D01*
X185781Y235596D02*
X185400Y236357D01*
X184638Y237119D01*
X183876Y237500D01*
X182353D01*
X181591Y237119D01*
X180830Y236357D01*
X180449Y235596D01*
X180068Y234453D01*
Y232549D01*
X180449Y231406D01*
X180830Y230644D01*
X181591Y229883D01*
X182353Y229502D01*
X183876D01*
X184638Y229883D01*
X185400Y230644D01*
X185781Y231406D01*
X188028Y235977D02*
X188790Y236357D01*
X189932Y237500D01*
Y229502D01*
X210996Y383080D02*
X210615Y383842D01*
X209854Y384603D01*
X209092Y384984D01*
X207568D01*
X206807Y384603D01*
X206045Y383842D01*
X205664Y383080D01*
X205283Y381937D01*
Y380033D01*
X205664Y378890D01*
X206045Y378129D01*
X206807Y377367D01*
X207568Y376986D01*
X209092D01*
X209854Y377367D01*
X210615Y378129D01*
X210996Y378890D01*
X213624Y383080D02*
Y383461D01*
X214005Y384223D01*
X214386Y384603D01*
X215148Y384984D01*
X216671D01*
X217433Y384603D01*
X217814Y384223D01*
X218195Y383461D01*
Y382699D01*
X217814Y381937D01*
X217052Y380795D01*
X213243Y376986D01*
X218576D01*
D14*
X147446Y406750D02*
D03*
X85554Y338249D02*
D03*
X85554Y322249D02*
D03*
X85554Y356249D02*
D03*
X85554Y372249D02*
D03*
M02*
