G04*
G04 #@! TF.GenerationSoftware,Altium Limited,Altium Designer,21.3.1 (25)*
G04*
G04 Layer_Physical_Order=2*
G04 Layer_Color=16711680*
%FSLAX44Y44*%
%MOMM*%
G71*
G04*
G04 #@! TF.SameCoordinates,1899EECA-0796-468C-8384-63A2F62C21E4*
G04*
G04*
G04 #@! TF.FilePolarity,Positive*
G04*
G01*
G75*
%ADD10C,0.2540*%
%ADD24C,0.5000*%
%ADD26C,1.3500*%
%ADD27C,1.8000*%
%ADD28C,2.0000*%
%ADD29C,1.5000*%
%ADD30R,1.3500X1.3500*%
%ADD31C,1.4000*%
%ADD32C,4.5000*%
%ADD33R,1.4000X1.4000*%
%ADD34R,1.4000X1.4000*%
%ADD35C,0.6000*%
G36*
X206234Y443402D02*
X203001Y439616D01*
X200265Y435151D01*
X198260Y430313D01*
X197038Y425221D01*
X196627Y420000D01*
X197038Y414779D01*
X198260Y409687D01*
X200265Y404849D01*
X203001Y400384D01*
X206402Y396402D01*
X210384Y393001D01*
X214849Y390265D01*
X219687Y388260D01*
X224779Y387038D01*
X230000Y386627D01*
X235221Y387038D01*
X240313Y388260D01*
X245151Y390265D01*
X249616Y393001D01*
X253598Y396402D01*
X253731Y396557D01*
X254922Y396117D01*
Y53883D01*
X253731Y53443D01*
X253598Y53598D01*
X249616Y56999D01*
X245151Y59735D01*
X240313Y61740D01*
X235221Y62962D01*
X230000Y63373D01*
X224779Y62962D01*
X219687Y61740D01*
X214849Y59735D01*
X210384Y56999D01*
X206402Y53598D01*
X203001Y49616D01*
X200265Y45151D01*
X198260Y40313D01*
X197038Y35221D01*
X196627Y30000D01*
X197038Y24779D01*
X198260Y19687D01*
X200265Y14849D01*
X203001Y10384D01*
X206402Y6402D01*
X206803Y6059D01*
X206363Y4868D01*
X122000D01*
Y135000D01*
X181500D01*
Y191126D01*
X182673Y191612D01*
X233279Y141006D01*
X232798Y140526D01*
X231613Y138474D01*
X231000Y136185D01*
Y133815D01*
X231613Y131526D01*
X232798Y129474D01*
X234474Y127798D01*
X236526Y126613D01*
X238815Y126000D01*
X241185D01*
X243474Y126613D01*
X245526Y127798D01*
X247202Y129474D01*
X248387Y131526D01*
X249000Y133815D01*
Y136185D01*
X248387Y138474D01*
X247202Y140526D01*
X245526Y142202D01*
X243474Y143387D01*
X241185Y144000D01*
X239914D01*
X239244Y144840D01*
X239750Y146000D01*
X241185D01*
X243474Y146613D01*
X245526Y147798D01*
X247202Y149474D01*
X248387Y151526D01*
X249000Y153815D01*
Y156185D01*
X248387Y158474D01*
X247202Y160526D01*
X245526Y162202D01*
X243474Y163387D01*
X241185Y164000D01*
X238815D01*
X236526Y163387D01*
X234474Y162202D01*
X232798Y160526D01*
X231334Y160382D01*
X181500Y210215D01*
Y218584D01*
X182673Y219069D01*
X200100Y201642D01*
X201182Y200920D01*
X202458Y200666D01*
X231119D01*
X232235Y199550D01*
X231613Y198474D01*
X231000Y196185D01*
Y193815D01*
X231613Y191526D01*
X232798Y189474D01*
X234474Y187798D01*
X236526Y186613D01*
X238815Y186000D01*
X241185D01*
X243474Y186613D01*
X245526Y187798D01*
X247202Y189474D01*
X248387Y191526D01*
X249000Y193815D01*
Y196185D01*
X248387Y198474D01*
X247202Y200526D01*
X245526Y202202D01*
X243474Y203387D01*
X241185Y204000D01*
X238815D01*
X237553Y203662D01*
X235465Y205750D01*
X236401Y206686D01*
X236526Y206613D01*
X238815Y206000D01*
X241185D01*
X243474Y206613D01*
X245526Y207798D01*
X247202Y209474D01*
X248387Y211526D01*
X249000Y213815D01*
Y216185D01*
X248387Y218474D01*
X247202Y220526D01*
X245526Y222202D01*
X243474Y223387D01*
X241185Y224000D01*
X238815D01*
X236526Y223387D01*
X234474Y222202D01*
X232798Y220526D01*
X231613Y218474D01*
X231000Y216185D01*
Y213815D01*
X231314Y212644D01*
X230339Y211374D01*
X205512D01*
X181500Y235386D01*
Y314000D01*
X150224D01*
X149738Y315173D01*
X157358Y322793D01*
X158080Y323874D01*
X158334Y325150D01*
Y348263D01*
X159239Y349168D01*
X160000Y351005D01*
Y352995D01*
X159239Y354832D01*
X157832Y356239D01*
X155995Y357000D01*
X154005D01*
X152168Y356239D01*
X150761Y354832D01*
X150000Y352995D01*
Y351005D01*
X150761Y349168D01*
X151666Y348263D01*
Y326531D01*
X146507Y321372D01*
X145334Y321858D01*
Y324263D01*
X146239Y325168D01*
X147000Y327005D01*
Y328995D01*
X146239Y330832D01*
X144832Y332239D01*
X142995Y333000D01*
X141005D01*
X139168Y332239D01*
X137761Y330832D01*
X137000Y328995D01*
Y327005D01*
X137761Y325168D01*
X138666Y324263D01*
Y319244D01*
X133421Y314000D01*
X5118D01*
Y395401D01*
X6388Y395987D01*
X9884Y393001D01*
X14349Y390265D01*
X19187Y388260D01*
X24279Y387038D01*
X29500Y386627D01*
X34721Y387038D01*
X39813Y388260D01*
X44651Y390265D01*
X49116Y393001D01*
X53098Y396402D01*
X56499Y400384D01*
X59235Y404849D01*
X61240Y409687D01*
X62462Y414779D01*
X62873Y420000D01*
X62462Y425221D01*
X61240Y430313D01*
X59235Y435151D01*
X56499Y439616D01*
X53266Y443402D01*
X53575Y444672D01*
X205925D01*
X206234Y443402D01*
D02*
G37*
G36*
X108000Y5000D02*
X5000D01*
Y134882D01*
X5118Y135000D01*
X108000D01*
Y5000D01*
D02*
G37*
%LPC*%
G36*
X123690Y413456D02*
Y405190D01*
X131956D01*
X131310Y407602D01*
X130054Y409778D01*
X128278Y411554D01*
X126102Y412810D01*
X123690Y413456D01*
D02*
G37*
G36*
X121150D02*
X118738Y412810D01*
X116562Y411554D01*
X114786Y409778D01*
X113530Y407602D01*
X112884Y405190D01*
X121150D01*
Y413456D01*
D02*
G37*
G36*
X131956Y402650D02*
X123690D01*
Y394384D01*
X126102Y395030D01*
X128278Y396286D01*
X130054Y398062D01*
X131310Y400238D01*
X131956Y402650D01*
D02*
G37*
G36*
X121150D02*
X112884D01*
X113530Y400238D01*
X114786Y398062D01*
X116562Y396286D01*
X118738Y395030D01*
X121150Y394384D01*
Y402650D01*
D02*
G37*
G36*
X106020Y412920D02*
X88020D01*
Y394920D01*
X99591D01*
X111756Y382756D01*
X113244Y381761D01*
X115000Y381412D01*
X141011D01*
X142005Y381000D01*
X143995D01*
X145832Y381761D01*
X147239Y383168D01*
X148000Y385005D01*
Y386995D01*
X147239Y388832D01*
X145832Y390239D01*
X143995Y391000D01*
X142005D01*
X141011Y390588D01*
X116901D01*
X106020Y401469D01*
Y412920D01*
D02*
G37*
G36*
X241185Y344000D02*
X238815D01*
X236526Y343387D01*
X234474Y342202D01*
X232798Y340526D01*
X231613Y338474D01*
X231000Y336185D01*
Y333815D01*
X231613Y331526D01*
X232798Y329474D01*
X234474Y327798D01*
X236526Y326613D01*
X238815Y326000D01*
X241185D01*
X243474Y326613D01*
X245526Y327798D01*
X247202Y329474D01*
X248387Y331526D01*
X249000Y333815D01*
Y336185D01*
X248387Y338474D01*
X247202Y340526D01*
X245526Y342202D01*
X243474Y343387D01*
X241185Y344000D01*
D02*
G37*
G36*
Y324000D02*
X238815D01*
X236526Y323387D01*
X234474Y322202D01*
X232798Y320526D01*
X231613Y318474D01*
X231000Y316185D01*
Y313815D01*
X231613Y311526D01*
X232798Y309474D01*
X234474Y307798D01*
X236526Y306613D01*
X238815Y306000D01*
X241185D01*
X243474Y306613D01*
X245526Y307798D01*
X247202Y309474D01*
X248387Y311526D01*
X249000Y313815D01*
Y316185D01*
X248387Y318474D01*
X247202Y320526D01*
X245526Y322202D01*
X243474Y323387D01*
X241185Y324000D01*
D02*
G37*
G36*
Y304000D02*
X238815D01*
X236526Y303387D01*
X234474Y302202D01*
X232798Y300526D01*
X231613Y298474D01*
X231000Y296185D01*
Y293815D01*
X231613Y291526D01*
X232798Y289474D01*
X234474Y287798D01*
X236526Y286613D01*
X238815Y286000D01*
X241185D01*
X243474Y286613D01*
X245526Y287798D01*
X247202Y289474D01*
X248387Y291526D01*
X249000Y293815D01*
Y296185D01*
X248387Y298474D01*
X247202Y300526D01*
X245526Y302202D01*
X243474Y303387D01*
X241185Y304000D01*
D02*
G37*
G36*
Y284000D02*
X238815D01*
X236526Y283387D01*
X234474Y282202D01*
X232798Y280526D01*
X231613Y278474D01*
X231000Y276185D01*
Y273815D01*
X231613Y271526D01*
X232798Y269474D01*
X234474Y267798D01*
X236526Y266613D01*
X238815Y266000D01*
X241185D01*
X243474Y266613D01*
X245526Y267798D01*
X247202Y269474D01*
X248387Y271526D01*
X249000Y273815D01*
Y276185D01*
X248387Y278474D01*
X247202Y280526D01*
X245526Y282202D01*
X243474Y283387D01*
X241185Y284000D01*
D02*
G37*
G36*
Y264000D02*
X238815D01*
X236526Y263387D01*
X234474Y262202D01*
X232798Y260526D01*
X231613Y258474D01*
X231000Y256185D01*
Y253815D01*
X231613Y251526D01*
X232798Y249474D01*
X234474Y247798D01*
X236526Y246613D01*
X238815Y246000D01*
X241185D01*
X243474Y246613D01*
X245526Y247798D01*
X247202Y249474D01*
X248387Y251526D01*
X249000Y253815D01*
Y256185D01*
X248387Y258474D01*
X247202Y260526D01*
X245526Y262202D01*
X243474Y263387D01*
X241185Y264000D01*
D02*
G37*
G36*
X241270Y244536D02*
Y236270D01*
X249536D01*
X248890Y238682D01*
X247634Y240858D01*
X245858Y242634D01*
X243682Y243890D01*
X241270Y244536D01*
D02*
G37*
G36*
X238730D02*
X236318Y243890D01*
X234142Y242634D01*
X232366Y240858D01*
X231110Y238682D01*
X230464Y236270D01*
X238730D01*
Y244536D01*
D02*
G37*
G36*
X249536Y233730D02*
X241270D01*
Y225464D01*
X243682Y226110D01*
X245858Y227366D01*
X247634Y229142D01*
X248890Y231318D01*
X249536Y233730D01*
D02*
G37*
G36*
X238730D02*
X230464D01*
X231110Y231318D01*
X232366Y229142D01*
X234142Y227366D01*
X236318Y226110D01*
X238730Y225464D01*
Y233730D01*
D02*
G37*
G36*
X241270Y184536D02*
Y176270D01*
X249536D01*
X248890Y178682D01*
X247634Y180858D01*
X245858Y182634D01*
X243682Y183890D01*
X241270Y184536D01*
D02*
G37*
G36*
X238730Y184536D02*
X236318Y183890D01*
X234142Y182634D01*
X232366Y180858D01*
X231110Y178682D01*
X230464Y176270D01*
X238730D01*
Y184536D01*
D02*
G37*
G36*
X249536Y173730D02*
X241270D01*
Y165464D01*
X243682Y166110D01*
X245858Y167366D01*
X247634Y169142D01*
X248890Y171318D01*
X249536Y173730D01*
D02*
G37*
G36*
X238730D02*
X230464D01*
X231110Y171318D01*
X232366Y169142D01*
X234142Y167366D01*
X236318Y166110D01*
X238730Y165464D01*
Y173730D01*
D02*
G37*
G36*
X249000Y124000D02*
X231000D01*
Y106000D01*
X249000D01*
Y124000D01*
D02*
G37*
%LPD*%
D10*
X143250Y245040D02*
X167131D01*
X129400Y258890D02*
X143250Y245040D01*
X167131D02*
X204131Y208040D01*
X129400Y243050D02*
X131450Y241000D01*
X165458D02*
X202458Y204000D01*
X131450Y241000D02*
X165458D01*
X230396Y156604D02*
X238396D01*
X154800Y230350D02*
X156650D01*
X230396Y156604D01*
X238396D02*
X240000Y155000D01*
X237807Y137193D02*
Y141193D01*
X162000Y217000D02*
X237807Y141193D01*
Y137193D02*
X240000Y135000D01*
X156288Y217000D02*
X162000D01*
X154800Y215512D02*
X156288Y217000D01*
X154800Y205950D02*
Y215512D01*
X58350Y256650D02*
X80787D01*
X35000Y280000D02*
X58350Y256650D01*
X24250Y280000D02*
X35000D01*
X155000Y325150D02*
Y352000D01*
X17000Y187150D02*
X155000Y325150D01*
X17000Y287250D02*
X24250Y280000D01*
X80787Y256650D02*
X142000Y317863D01*
Y328000D01*
X204131Y208040D02*
X233040D01*
X129400Y258890D02*
Y269450D01*
X202458Y204000D02*
X232500D01*
X240000Y195000D02*
Y196500D01*
X232500Y204000D02*
X240000Y196500D01*
X240000Y215000D02*
X240000D01*
X233040Y208040D02*
X240000Y215000D01*
D24*
X115000Y386000D02*
X143000D01*
X97050Y403950D02*
X115000Y386000D01*
D26*
X129400Y192250D02*
D03*
X154800Y179550D02*
D03*
Y204950D02*
D03*
X129400Y217650D02*
D03*
X154800Y230350D02*
D03*
X129400Y243050D02*
D03*
X154800Y255750D02*
D03*
D27*
X66000Y281150D02*
D03*
Y166850D02*
D03*
D28*
X96500Y146500D02*
D03*
Y301500D02*
D03*
D29*
X32200Y160750D02*
D03*
X17000Y186150D02*
D03*
X32200Y261850D02*
D03*
X17000Y287250D02*
D03*
D30*
X129400Y268450D02*
D03*
D31*
X240000Y135000D02*
D03*
Y155000D02*
D03*
Y175000D02*
D03*
Y195000D02*
D03*
Y235000D02*
D03*
Y215000D02*
D03*
X122420Y403920D02*
D03*
X240000Y335000D02*
D03*
Y315000D02*
D03*
Y295000D02*
D03*
Y275000D02*
D03*
Y255000D02*
D03*
D32*
X230000Y420000D02*
D03*
Y30000D02*
D03*
X30000D02*
D03*
Y420000D02*
D03*
D33*
X97020Y403920D02*
D03*
D34*
X240000Y115000D02*
D03*
D35*
X145000D02*
D03*
Y107438D02*
D03*
Y100000D02*
D03*
Y92000D02*
D03*
X71000Y115000D02*
D03*
Y107000D02*
D03*
Y99000D02*
D03*
Y91000D02*
D03*
X17744Y70326D02*
D03*
Y110326D02*
D03*
X99565Y82316D02*
D03*
X47744Y70326D02*
D03*
X99000Y52000D02*
D03*
X69000Y22000D02*
D03*
X142000Y328000D02*
D03*
X155000Y352000D02*
D03*
X143000Y386000D02*
D03*
X211929Y377484D02*
D03*
X224646Y366924D02*
D03*
X183185Y367242D02*
D03*
X166773Y318910D02*
D03*
X129424Y432309D02*
D03*
X93480Y379730D02*
D03*
X193676Y242804D02*
D03*
X188676Y284804D02*
D03*
X19369Y378734D02*
D03*
X69369Y438734D02*
D03*
X195369Y377734D02*
D03*
X189369Y438734D02*
D03*
X249369Y378734D02*
D03*
X189000Y17000D02*
D03*
X199000Y57000D02*
D03*
X179000Y107000D02*
D03*
X93480Y329730D02*
D03*
Y345730D02*
D03*
Y363730D02*
D03*
X135422Y50039D02*
D03*
X219119Y133984D02*
D03*
X239369Y68734D02*
D03*
X18480Y338730D02*
D03*
X159000Y77000D02*
D03*
M02*
