G04*
G04 #@! TF.GenerationSoftware,Altium Limited,Altium Designer,21.3.1 (25)*
G04*
G04 Layer_Color=128*
%FSLAX44Y44*%
%MOMM*%
G71*
G04*
G04 #@! TF.SameCoordinates,1899EECA-0796-468C-8384-63A2F62C21E4*
G04*
G04*
G04 #@! TF.FilePolarity,Positive*
G04*
G01*
G75*
%ADD36C,0.0508*%
D36*
X124900Y192250D02*
X133900D01*
X129400Y187750D02*
Y196750D01*
X150300Y179550D02*
X159300D01*
X154800Y175050D02*
Y184050D01*
X49750Y281150D02*
X82250D01*
X66000Y264900D02*
Y297400D01*
X49750Y166850D02*
X82250D01*
X66000Y150600D02*
Y183100D01*
X88500Y146500D02*
X104500D01*
X96500Y138500D02*
Y154500D01*
X88500Y301500D02*
X104500D01*
X96500Y293500D02*
Y309500D01*
X27750Y160750D02*
X36650D01*
X32200Y156300D02*
Y165200D01*
X12550Y186150D02*
X21450D01*
X17000Y181700D02*
Y190600D01*
X27750Y261850D02*
X36650D01*
X32200Y257400D02*
Y266300D01*
X12550Y287250D02*
X21450D01*
X17000Y282800D02*
Y291700D01*
X150300Y204950D02*
X159300D01*
X154800Y200450D02*
Y209450D01*
X124900Y217650D02*
X133900D01*
X129400Y213150D02*
Y222150D01*
X150300Y230350D02*
X159300D01*
X154800Y225850D02*
Y234850D01*
X124900Y243050D02*
X133900D01*
X129400Y238550D02*
Y247550D01*
X150300Y255750D02*
X159300D01*
X154800Y251250D02*
Y260250D01*
X124900Y268450D02*
X133900D01*
X129400Y263950D02*
Y272950D01*
X235000Y135000D02*
X245000D01*
X240000Y130000D02*
Y140000D01*
X235000Y155000D02*
X245000D01*
X240000Y150000D02*
Y160000D01*
X235000Y175000D02*
X245000D01*
X240000Y170000D02*
Y180000D01*
X235000Y195000D02*
X245000D01*
X240000Y190000D02*
Y200000D01*
X235000Y235000D02*
X245000D01*
X240000Y230000D02*
Y240000D01*
X235000Y215000D02*
X245000D01*
X240000Y210000D02*
Y220000D01*
X215000Y420000D02*
X245000D01*
X230000Y405000D02*
Y435000D01*
X215000Y30000D02*
X245000D01*
X230000Y15000D02*
Y45000D01*
X15000Y30000D02*
X45000D01*
X30000Y15000D02*
Y45000D01*
X91770Y403920D02*
X102270D01*
X97020Y398670D02*
Y409170D01*
X117170Y403920D02*
X127670D01*
X122420Y398670D02*
Y409170D01*
X15000Y420000D02*
X45000D01*
X30000Y405000D02*
Y435000D01*
X235000Y115000D02*
X245000D01*
X240000Y110000D02*
Y120000D01*
X235000Y335000D02*
X245000D01*
X240000Y330000D02*
Y340000D01*
X235000Y315000D02*
X245000D01*
X240000Y310000D02*
Y320000D01*
X235000Y295000D02*
X245000D01*
X240000Y290000D02*
Y300000D01*
X235000Y275000D02*
X245000D01*
X240000Y270000D02*
Y280000D01*
X235000Y255000D02*
X245000D01*
X240000Y250000D02*
Y260000D01*
X143500Y115000D02*
X146500D01*
X145000Y113500D02*
Y116500D01*
X143500Y107438D02*
X146500D01*
X145000Y105938D02*
Y108938D01*
X143500Y100000D02*
X146500D01*
X145000Y98500D02*
Y101500D01*
X143500Y92000D02*
X146500D01*
X145000Y90500D02*
Y93500D01*
X69500Y115000D02*
X72500D01*
X71000Y113500D02*
Y116500D01*
X69500Y107000D02*
X72500D01*
X71000Y105500D02*
Y108500D01*
X69500Y99000D02*
X72500D01*
X71000Y97500D02*
Y100500D01*
X69500Y91000D02*
X72500D01*
X71000Y89500D02*
Y92500D01*
X16244Y70326D02*
X19244D01*
X17744Y68826D02*
Y71826D01*
X16244Y110326D02*
X19244D01*
X17744Y108826D02*
Y111826D01*
X98065Y82316D02*
X101065D01*
X99565Y80816D02*
Y83816D01*
X46244Y70326D02*
X49244D01*
X47744Y68826D02*
Y71826D01*
X97500Y52000D02*
X100500D01*
X99000Y50500D02*
Y53500D01*
X67500Y22000D02*
X70500D01*
X69000Y20500D02*
Y23500D01*
X140500Y328000D02*
X143500D01*
X142000Y326500D02*
Y329500D01*
X153500Y352000D02*
X156500D01*
X155000Y350500D02*
Y353500D01*
X141500Y386000D02*
X144500D01*
X143000Y384500D02*
Y387500D01*
X210429Y377484D02*
X213429D01*
X211929Y375984D02*
Y378984D01*
X223146Y366924D02*
X226146D01*
X224646Y365424D02*
Y368424D01*
X181685Y367242D02*
X184685D01*
X183185Y365742D02*
Y368742D01*
X165273Y318910D02*
X168273D01*
X166773Y317410D02*
Y320410D01*
X127924Y432309D02*
X130924D01*
X129424Y430809D02*
Y433809D01*
X91980Y379730D02*
X94980D01*
X93480Y378230D02*
Y381230D01*
X192176Y242804D02*
X195176D01*
X193676Y241304D02*
Y244304D01*
X187176Y284804D02*
X190176D01*
X188676Y283304D02*
Y286304D01*
X17869Y378734D02*
X20869D01*
X19369Y377234D02*
Y380234D01*
X67869Y438734D02*
X70869D01*
X69369Y437234D02*
Y440234D01*
X193869Y377734D02*
X196869D01*
X195369Y376234D02*
Y379234D01*
X187869Y438734D02*
X190869D01*
X189369Y437234D02*
Y440234D01*
X247869Y378734D02*
X250869D01*
X249369Y377234D02*
Y380234D01*
X187500Y17000D02*
X190500D01*
X189000Y15500D02*
Y18500D01*
X197500Y57000D02*
X200500D01*
X199000Y55500D02*
Y58500D01*
X177500Y107000D02*
X180500D01*
X179000Y105500D02*
Y108500D01*
X91980Y329730D02*
X94980D01*
X93480Y328230D02*
Y331230D01*
X91980Y345730D02*
X94980D01*
X93480Y344230D02*
Y347230D01*
X91980Y363730D02*
X94980D01*
X93480Y362230D02*
Y365230D01*
X133922Y50039D02*
X136922D01*
X135422Y48539D02*
Y51539D01*
X217619Y133984D02*
X220619D01*
X219119Y132484D02*
Y135484D01*
X237869Y68734D02*
X240869D01*
X239369Y67234D02*
Y70234D01*
X16980Y338730D02*
X19980D01*
X18480Y337230D02*
Y340230D01*
X157500Y77000D02*
X160500D01*
X159000Y75500D02*
Y78500D01*
M02*
