G04*
G04 #@! TF.GenerationSoftware,Altium Limited,Altium Designer,21.3.1 (25)*
G04*
G04 Layer_Physical_Order=1*
G04 Layer_Color=255*
%FSLAX44Y44*%
%MOMM*%
G71*
G04*
G04 #@! TF.SameCoordinates,1899EECA-0796-468C-8384-63A2F62C21E4*
G04*
G04*
G04 #@! TF.FilePolarity,Positive*
G04*
G01*
G75*
%ADD10C,0.2540*%
%ADD15R,1.7500X2.1000*%
%ADD16R,0.8900X0.8200*%
%ADD17R,0.8200X0.8900*%
%ADD24C,0.5000*%
%ADD25C,1.5000*%
%ADD26C,1.3500*%
%ADD27C,1.8000*%
%ADD28C,2.0000*%
%ADD29C,1.5000*%
%ADD30R,1.3500X1.3500*%
%ADD31C,1.4000*%
%ADD32C,4.5000*%
%ADD33R,1.4000X1.4000*%
%ADD34R,1.4000X1.4000*%
%ADD35C,0.6000*%
G36*
X88020Y399162D02*
Y394920D01*
X92716D01*
Y391696D01*
X93065Y389940D01*
X94060Y388451D01*
X109756Y372756D01*
X110709Y372119D01*
X110323Y370849D01*
X106514D01*
X102346Y375018D01*
X101264Y375740D01*
X99988Y375994D01*
X84699D01*
Y378349D01*
X71799D01*
Y366149D01*
X84699D01*
Y369326D01*
X98607D01*
X101799Y366134D01*
Y359619D01*
X101799Y358349D01*
X101799Y357379D01*
Y355334D01*
X98381D01*
X95677Y358038D01*
X94596Y358760D01*
X93320Y359014D01*
X84699D01*
Y362349D01*
X71799D01*
Y350149D01*
X84699D01*
Y352346D01*
X91939D01*
X94642Y349642D01*
X95724Y348920D01*
X97000Y348666D01*
X100901D01*
X101799Y347768D01*
Y347119D01*
X101799Y345849D01*
X101799Y344879D01*
Y341885D01*
X84699D01*
Y344349D01*
X71799D01*
Y332149D01*
X84699D01*
Y335217D01*
X100901D01*
X101618Y334500D01*
X101799Y333947D01*
X101799Y332849D01*
X101799Y332379D01*
Y325364D01*
X101599Y325164D01*
X84699D01*
Y328349D01*
X71799D01*
Y316149D01*
X84699D01*
Y318496D01*
X102980D01*
X104256Y318750D01*
X105337Y319473D01*
X106514Y320649D01*
X114699D01*
Y332379D01*
X114699Y333649D01*
X114699Y334119D01*
Y344879D01*
X114699Y346149D01*
X114699Y347119D01*
Y357379D01*
X114699Y358649D01*
X114699Y359619D01*
Y370142D01*
X114699Y370849D01*
X115736Y371412D01*
X116762D01*
X117799Y370849D01*
X117799Y370142D01*
Y358649D01*
X117799D01*
X117799Y358349D01*
X117799D01*
Y346149D01*
X117799D01*
X117799Y345849D01*
X117799D01*
Y334119D01*
X117799Y332849D01*
X117799Y332379D01*
Y320649D01*
X130699D01*
Y324666D01*
X138263D01*
X139168Y323761D01*
X141005Y323000D01*
X142995D01*
X144832Y323761D01*
X145737Y324666D01*
X165619D01*
X175112Y315173D01*
X174626Y314000D01*
X61797D01*
X61311Y315173D01*
X62287Y316149D01*
X68699D01*
Y328349D01*
X66837D01*
Y332149D01*
X68699D01*
Y344349D01*
X66837D01*
Y350149D01*
X68699D01*
Y362349D01*
X66837D01*
Y366149D01*
X68699D01*
Y378349D01*
X67491D01*
X67108Y379619D01*
X86750Y399261D01*
X88020Y399162D01*
D02*
G37*
G36*
X206234Y443402D02*
X203001Y439616D01*
X200265Y435151D01*
X198260Y430313D01*
X197038Y425221D01*
X196627Y420000D01*
X197038Y414779D01*
X198260Y409687D01*
X200265Y404849D01*
X203001Y400384D01*
X206402Y396402D01*
X210384Y393001D01*
X214849Y390265D01*
X219687Y388260D01*
X224779Y387038D01*
X230000Y386627D01*
X235221Y387038D01*
X240313Y388260D01*
X245151Y390265D01*
X249616Y393001D01*
X253598Y396402D01*
X253731Y396557D01*
X254922Y396117D01*
Y53883D01*
X253731Y53443D01*
X253598Y53598D01*
X249616Y56999D01*
X245151Y59735D01*
X240313Y61740D01*
X235221Y62962D01*
X230000Y63373D01*
X224779Y62962D01*
X219687Y61740D01*
X214849Y59735D01*
X210384Y56999D01*
X206402Y53598D01*
X203001Y49616D01*
X200265Y45151D01*
X198260Y40313D01*
X197038Y35221D01*
X196627Y30000D01*
X197038Y24779D01*
X198260Y19687D01*
X200265Y14849D01*
X203001Y10384D01*
X206402Y6402D01*
X206803Y6059D01*
X206363Y4868D01*
X122000D01*
Y89711D01*
X125229D01*
Y102751D01*
Y115791D01*
X122000D01*
Y135000D01*
X181500D01*
Y196709D01*
X182482Y197515D01*
X183000Y197412D01*
X186916D01*
Y195771D01*
X189427D01*
Y140234D01*
X189777Y138479D01*
X190771Y136990D01*
X192236Y135526D01*
X216006Y111756D01*
X217494Y110761D01*
X219250Y110412D01*
X231000D01*
Y106000D01*
X249000D01*
Y124000D01*
X231000D01*
Y119588D01*
X221150D01*
X198604Y142135D01*
Y195771D01*
X199116D01*
Y208671D01*
X186916D01*
Y206588D01*
X184900D01*
X181500Y209989D01*
Y307126D01*
X182673Y307612D01*
X231686Y258599D01*
X231613Y258474D01*
X231000Y256185D01*
Y253815D01*
X231613Y251526D01*
X232798Y249474D01*
X234474Y247798D01*
X236526Y246613D01*
X238815Y246000D01*
X241185D01*
X243474Y246613D01*
X245526Y247798D01*
X247202Y249474D01*
X248387Y251526D01*
X249000Y253815D01*
Y256185D01*
X248387Y258474D01*
X247202Y260526D01*
X245526Y262202D01*
X243474Y263387D01*
X241185Y264000D01*
X238815D01*
X236526Y263387D01*
X236401Y263314D01*
X184104Y315612D01*
X184744Y316767D01*
X185653Y316586D01*
X193199D01*
X231549Y278235D01*
X231000Y276185D01*
Y273815D01*
X231613Y271526D01*
X232798Y269474D01*
X234474Y267798D01*
X236526Y266613D01*
X238815Y266000D01*
X241185D01*
X243474Y266613D01*
X245526Y267798D01*
X247202Y269474D01*
X248387Y271526D01*
X249000Y273815D01*
Y276185D01*
X248387Y278474D01*
X247202Y280526D01*
X245526Y282202D01*
X243474Y283387D01*
X241185Y284000D01*
X238815D01*
X236526Y283387D01*
X236084Y283131D01*
X199762Y319453D01*
X200248Y320626D01*
X207659D01*
X231232Y297052D01*
X231000Y296185D01*
Y293815D01*
X231613Y291526D01*
X232798Y289474D01*
X234474Y287798D01*
X236526Y286613D01*
X238815Y286000D01*
X241185D01*
X243474Y286613D01*
X245526Y287798D01*
X247202Y289474D01*
X248387Y291526D01*
X249000Y293815D01*
Y296185D01*
X248387Y298474D01*
X247202Y300526D01*
X245526Y302202D01*
X243474Y303387D01*
X241185Y304000D01*
X238815D01*
X236526Y303387D01*
X235133Y302582D01*
X214222Y323493D01*
X214708Y324666D01*
X225619D01*
X231686Y318599D01*
X231613Y318474D01*
X231000Y316185D01*
Y313815D01*
X231613Y311526D01*
X232798Y309474D01*
X234474Y307798D01*
X236526Y306613D01*
X238815Y306000D01*
X241185D01*
X243474Y306613D01*
X245526Y307798D01*
X247202Y309474D01*
X248387Y311526D01*
X249000Y313815D01*
Y316185D01*
X248387Y318474D01*
X247202Y320526D01*
X245526Y322202D01*
X243474Y323387D01*
X241185Y324000D01*
X238815D01*
X236526Y323387D01*
X236401Y323314D01*
X229357Y330358D01*
X228276Y331080D01*
X227000Y331334D01*
X190381D01*
X156379Y365336D01*
X155297Y366059D01*
X154021Y366313D01*
X130699D01*
X130699Y370849D01*
X131736Y371412D01*
X159100D01*
X184132Y346379D01*
X185620Y345385D01*
X187376Y345036D01*
X190884D01*
Y344077D01*
X203084D01*
Y345036D01*
X205190D01*
Y344010D01*
X217390D01*
Y344412D01*
X222510D01*
X231000Y335922D01*
Y333815D01*
X231613Y331526D01*
X232798Y329474D01*
X234474Y327798D01*
X236526Y326613D01*
X238815Y326000D01*
X241185D01*
X243474Y326613D01*
X245526Y327798D01*
X247202Y329474D01*
X248387Y331526D01*
X249000Y333815D01*
Y336185D01*
X248387Y338474D01*
X247202Y340526D01*
X245526Y342202D01*
X243474Y343387D01*
X241185Y344000D01*
X238815D01*
X236526Y343387D01*
X236517Y343382D01*
X227654Y352244D01*
X226166Y353239D01*
X224410Y353588D01*
X217390D01*
Y356910D01*
X205190D01*
Y354212D01*
X203084D01*
Y356977D01*
X190884D01*
Y354212D01*
X189277D01*
X164244Y379244D01*
X162756Y380239D01*
X162604Y380269D01*
X161699Y381149D01*
X161699Y381744D01*
Y393349D01*
X148799D01*
Y390588D01*
X144989D01*
X143995Y391000D01*
X142005D01*
X140168Y390239D01*
X138761Y388832D01*
X138000Y386995D01*
Y385005D01*
X138761Y383168D01*
X140071Y381858D01*
X140022Y381411D01*
X139681Y380588D01*
X114901D01*
X101892Y393596D01*
Y394920D01*
X106020D01*
Y412920D01*
X88020D01*
Y408508D01*
X84920D01*
X83164Y408159D01*
X81676Y407164D01*
X59005Y384493D01*
X58010Y383005D01*
X57661Y381249D01*
Y378349D01*
X55799D01*
Y366149D01*
X57661D01*
Y362349D01*
X55799D01*
Y350149D01*
X57661D01*
Y344349D01*
X55799D01*
Y332149D01*
X57661D01*
Y328349D01*
X55799D01*
Y322638D01*
X47161Y314000D01*
X5118D01*
Y395401D01*
X6388Y395987D01*
X9884Y393001D01*
X14349Y390265D01*
X19187Y388260D01*
X24279Y387038D01*
X29500Y386627D01*
X34721Y387038D01*
X39813Y388260D01*
X44651Y390265D01*
X49116Y393001D01*
X53098Y396402D01*
X56499Y400384D01*
X59235Y404849D01*
X61240Y409687D01*
X62462Y414779D01*
X62873Y420000D01*
X62462Y425221D01*
X61240Y430313D01*
X59235Y435151D01*
X56499Y439616D01*
X53266Y443402D01*
X53575Y444672D01*
X205925D01*
X206234Y443402D01*
D02*
G37*
G36*
X108000Y5000D02*
X5000D01*
X5118Y5118D01*
Y135000D01*
X108000D01*
Y5000D01*
D02*
G37*
%LPC*%
G36*
X161741Y413391D02*
X156021D01*
Y408021D01*
X161741D01*
Y413391D01*
D02*
G37*
G36*
X153481D02*
X147761D01*
Y408021D01*
X153481D01*
Y413391D01*
D02*
G37*
G36*
X123690Y413456D02*
Y405190D01*
X131956D01*
X131310Y407602D01*
X130054Y409778D01*
X128278Y411554D01*
X126102Y412810D01*
X123690Y413456D01*
D02*
G37*
G36*
X121150D02*
X118738Y412810D01*
X116562Y411554D01*
X114786Y409778D01*
X113530Y407602D01*
X112884Y405190D01*
X121150D01*
Y413456D01*
D02*
G37*
G36*
X161741Y405481D02*
X156021D01*
Y400111D01*
X161741D01*
Y405481D01*
D02*
G37*
G36*
X153481D02*
X147761D01*
Y400111D01*
X153481D01*
Y405481D01*
D02*
G37*
G36*
X131956Y402650D02*
X123690D01*
Y394384D01*
X126102Y395030D01*
X128278Y396286D01*
X130054Y398062D01*
X131310Y400238D01*
X131956Y402650D01*
D02*
G37*
G36*
X121150D02*
X112884D01*
X113530Y400238D01*
X114786Y398062D01*
X116562Y396286D01*
X118738Y395030D01*
X121150Y394384D01*
Y402650D01*
D02*
G37*
G36*
X177201Y412851D02*
X164301D01*
Y400651D01*
X168667D01*
Y393349D01*
X164799D01*
Y381149D01*
X177699D01*
Y393349D01*
X175335D01*
Y400651D01*
X177201D01*
Y412851D01*
D02*
G37*
G36*
X195714Y373517D02*
X190344D01*
Y367797D01*
X195714D01*
Y373517D01*
D02*
G37*
G36*
X212560Y373450D02*
Y367730D01*
X217930D01*
Y373450D01*
X212560D01*
D02*
G37*
G36*
X195714Y365257D02*
X190344D01*
Y359537D01*
X195714D01*
Y365257D01*
D02*
G37*
G36*
X217930Y365190D02*
X212560D01*
Y359470D01*
X217930D01*
Y365190D01*
D02*
G37*
G36*
X203624Y373517D02*
X203408Y373517D01*
X198254D01*
Y366527D01*
Y359537D01*
X203408D01*
X204650Y359470D01*
X204867Y359470D01*
X210020D01*
Y366460D01*
Y373450D01*
X204867D01*
X203624Y373517D01*
D02*
G37*
G36*
X241270Y244536D02*
Y236270D01*
X249536D01*
X248890Y238682D01*
X247634Y240858D01*
X245858Y242634D01*
X243682Y243890D01*
X241270Y244536D01*
D02*
G37*
G36*
X238730D02*
X236318Y243890D01*
X234142Y242634D01*
X232366Y240858D01*
X231110Y238682D01*
X230464Y236270D01*
X238730D01*
Y244536D01*
D02*
G37*
G36*
X249536Y233730D02*
X241270D01*
Y225464D01*
X243682Y226110D01*
X245858Y227366D01*
X247634Y229142D01*
X248890Y231318D01*
X249536Y233730D01*
D02*
G37*
G36*
X238730D02*
X230464D01*
X231110Y231318D01*
X232366Y229142D01*
X234142Y227366D01*
X236318Y226110D01*
X238730Y225464D01*
Y233730D01*
D02*
G37*
G36*
X199656Y225211D02*
X194286D01*
Y219491D01*
X199656D01*
Y225211D01*
D02*
G37*
G36*
X191746D02*
X186376D01*
Y219491D01*
X191746D01*
Y225211D01*
D02*
G37*
G36*
X199656Y216951D02*
X194286D01*
Y211231D01*
X199656D01*
Y216951D01*
D02*
G37*
G36*
X191746D02*
X186376D01*
Y211231D01*
X191746D01*
Y216951D01*
D02*
G37*
G36*
X241185Y224000D02*
X238815D01*
X236526Y223387D01*
X234474Y222202D01*
X232798Y220526D01*
X231613Y218474D01*
X231000Y216185D01*
Y213815D01*
X231613Y211526D01*
X232798Y209474D01*
X234474Y207798D01*
X236526Y206613D01*
X238815Y206000D01*
X241185D01*
X243474Y206613D01*
X245526Y207798D01*
X247202Y209474D01*
X248387Y211526D01*
X249000Y213815D01*
Y216185D01*
X248387Y218474D01*
X247202Y220526D01*
X245526Y222202D01*
X243474Y223387D01*
X241185Y224000D01*
D02*
G37*
G36*
Y204000D02*
X238815D01*
X236526Y203387D01*
X234474Y202202D01*
X232798Y200526D01*
X231613Y198474D01*
X231000Y196185D01*
Y193815D01*
X231613Y191526D01*
X232798Y189474D01*
X234474Y187798D01*
X236526Y186613D01*
X238815Y186000D01*
X241185D01*
X243474Y186613D01*
X245526Y187798D01*
X247202Y189474D01*
X248387Y191526D01*
X249000Y193815D01*
Y196185D01*
X248387Y198474D01*
X247202Y200526D01*
X245526Y202202D01*
X243474Y203387D01*
X241185Y204000D01*
D02*
G37*
G36*
X241270Y184536D02*
Y176270D01*
X249536D01*
X248890Y178682D01*
X247634Y180858D01*
X245858Y182634D01*
X243682Y183890D01*
X241270Y184536D01*
D02*
G37*
G36*
X238730Y184536D02*
X236318Y183890D01*
X234142Y182634D01*
X232366Y180858D01*
X231110Y178682D01*
X230464Y176270D01*
X238730D01*
Y184536D01*
D02*
G37*
G36*
X249536Y173730D02*
X241270D01*
Y165464D01*
X243682Y166110D01*
X245858Y167366D01*
X247634Y169142D01*
X248890Y171318D01*
X249536Y173730D01*
D02*
G37*
G36*
X238730D02*
X230464D01*
X231110Y171318D01*
X232366Y169142D01*
X234142Y167366D01*
X236318Y166110D01*
X238730Y165464D01*
Y173730D01*
D02*
G37*
G36*
X241185Y164000D02*
X238815D01*
X236526Y163387D01*
X234474Y162202D01*
X232798Y160526D01*
X231613Y158474D01*
X231000Y156185D01*
Y153815D01*
X231613Y151526D01*
X232798Y149474D01*
X234474Y147798D01*
X236526Y146613D01*
X238815Y146000D01*
X241185D01*
X243474Y146613D01*
X245526Y147798D01*
X247202Y149474D01*
X248387Y151526D01*
X249000Y153815D01*
Y156185D01*
X248387Y158474D01*
X247202Y160526D01*
X245526Y162202D01*
X243474Y163387D01*
X241185Y164000D01*
D02*
G37*
G36*
Y144000D02*
X238815D01*
X236526Y143387D01*
X234474Y142202D01*
X232798Y140526D01*
X231613Y138474D01*
X231000Y136185D01*
Y133815D01*
X231613Y131526D01*
X232798Y129474D01*
X234474Y127798D01*
X236526Y126613D01*
X238815Y126000D01*
X241185D01*
X243474Y126613D01*
X245526Y127798D01*
X247202Y129474D01*
X248387Y131526D01*
X249000Y133815D01*
Y136185D01*
X248387Y138474D01*
X247202Y140526D01*
X245526Y142202D01*
X243474Y143387D01*
X241185Y144000D01*
D02*
G37*
G36*
X137789Y115791D02*
X127769D01*
Y104021D01*
X137789D01*
Y115791D01*
D02*
G37*
G36*
Y101481D02*
X127769D01*
Y89711D01*
X137789D01*
Y101481D01*
D02*
G37*
%LPD*%
D10*
X142000Y328000D02*
X167000D01*
X124249Y326749D02*
X125500Y328000D01*
X167000D02*
X240000Y255000D01*
X125500Y328000D02*
X167000D01*
X187327Y323960D02*
X209040D01*
X155132Y351868D02*
X159419D01*
X155000Y352000D02*
X155132Y351868D01*
X159419D02*
X187327Y323960D01*
X124498Y352000D02*
X155000D01*
X124249Y352249D02*
X124498Y352000D01*
X61899Y322249D02*
X62249D01*
X32200Y292201D02*
Y292551D01*
X82411Y321830D02*
X102980D01*
X107899Y326749D01*
X81330Y321830D02*
X82411D01*
X107899Y326749D02*
X108249D01*
X81446Y338551D02*
X107051D01*
X108249Y339749D01*
X97000Y352000D02*
X106498D01*
X108000D01*
X106498D02*
X108249Y350249D01*
X108000Y352000D02*
X108249Y352249D01*
X93320Y355680D02*
X97000Y352000D01*
X81330Y355680D02*
X93320D01*
X99988Y372660D02*
X107899Y364749D01*
X108249D01*
X81330Y372660D02*
X99988D01*
X171249Y387249D02*
X172001Y388002D01*
Y403792D01*
X154000Y386000D02*
X155249Y387249D01*
X165573Y340000D02*
X185653Y319920D01*
X124500Y340000D02*
X165573D01*
X185653Y319920D02*
X194580D01*
X126019Y362979D02*
X154021D01*
X189000Y328000D02*
X227000D01*
X154021Y362979D02*
X189000Y328000D01*
X194580Y319920D02*
X239500Y275000D01*
X239500D01*
X209040Y323960D02*
X238750Y294250D01*
X227000Y328000D02*
X240000Y315000D01*
X124249Y339749D02*
X124500Y340000D01*
X124249Y364749D02*
X126019Y362979D01*
D15*
X126499Y102751D02*
D03*
X89999D02*
D03*
D16*
X170751Y406751D02*
D03*
X154751D02*
D03*
X62249Y338249D02*
D03*
X78249D02*
D03*
X62249Y322249D02*
D03*
X78249D02*
D03*
X62249Y356249D02*
D03*
X78249D02*
D03*
X62249Y372249D02*
D03*
X78249D02*
D03*
X155249Y387249D02*
D03*
X171249D02*
D03*
X108249Y339749D02*
D03*
X124249D02*
D03*
X124249Y364749D02*
D03*
X108249D02*
D03*
X124249Y352249D02*
D03*
X108249D02*
D03*
X124249Y326749D02*
D03*
X108249D02*
D03*
D17*
X193016Y218221D02*
D03*
X211290Y366460D02*
D03*
X193016Y202221D02*
D03*
X196984Y350527D02*
D03*
Y366527D02*
D03*
X211290Y350460D02*
D03*
D24*
X62249Y322250D02*
Y372249D01*
X131026Y226026D02*
X153174Y248174D01*
Y254021D02*
X154800Y255647D01*
X153174Y248174D02*
Y254021D01*
X131026Y220276D02*
Y226026D01*
X32200Y161750D02*
Y292201D01*
X187376Y349624D02*
X196984D01*
X211290Y350460D02*
X212750Y349000D01*
X224410D02*
X238410Y335000D01*
X212750Y349000D02*
X224410D01*
X238410Y335000D02*
X240000D01*
X196984Y349624D02*
X210454D01*
X211290Y350460D01*
X113000Y376000D02*
X161000D01*
X187376Y349624D01*
X191636Y202221D02*
X193016D01*
X191416Y202000D02*
X191636Y202221D01*
X168000Y217000D02*
X183000Y202000D01*
X191416D01*
X130050Y217000D02*
X168000D01*
X129400Y217650D02*
X130050Y217000D01*
X32200Y292551D02*
X61899Y322249D01*
X62249D02*
X62249Y322250D01*
Y372249D02*
Y381249D01*
X84920Y403920D01*
X92520D01*
X108186Y364686D02*
X108249Y364749D01*
X143000Y386000D02*
X154000D01*
X97304Y391696D02*
X113000Y376000D01*
X97304Y391696D02*
Y403636D01*
X97020Y403920D02*
X97304Y403636D01*
X194016Y140234D02*
Y201971D01*
X195480Y138770D02*
X219250Y115000D01*
X194016Y140234D02*
X195480Y138770D01*
X219250Y115000D02*
X239500D01*
D25*
X97000Y95000D02*
Y146000D01*
X96749Y146500D02*
X97000Y146249D01*
X96250Y146500D02*
Y301500D01*
X96500Y146500D02*
X97000Y146000D01*
X32000Y30000D02*
X97000Y95000D01*
X30000Y30000D02*
X32000D01*
D26*
X129400Y192250D02*
D03*
X154800Y179550D02*
D03*
Y204950D02*
D03*
X129400Y217650D02*
D03*
X154800Y230350D02*
D03*
X129400Y243050D02*
D03*
X154800Y255750D02*
D03*
D27*
X66000Y281150D02*
D03*
Y166850D02*
D03*
D28*
X96500Y146500D02*
D03*
Y301500D02*
D03*
D29*
X32200Y160750D02*
D03*
X17000Y186150D02*
D03*
X32200Y261850D02*
D03*
X17000Y287250D02*
D03*
D30*
X129400Y268450D02*
D03*
D31*
X240000Y135000D02*
D03*
Y155000D02*
D03*
Y175000D02*
D03*
Y195000D02*
D03*
Y235000D02*
D03*
Y215000D02*
D03*
X122420Y403920D02*
D03*
X240000Y335000D02*
D03*
Y315000D02*
D03*
Y295000D02*
D03*
Y275000D02*
D03*
Y255000D02*
D03*
D32*
X230000Y420000D02*
D03*
Y30000D02*
D03*
X30000D02*
D03*
Y420000D02*
D03*
D33*
X97020Y403920D02*
D03*
D34*
X240000Y115000D02*
D03*
D35*
X145000D02*
D03*
Y107438D02*
D03*
Y100000D02*
D03*
Y92000D02*
D03*
X71000Y115000D02*
D03*
Y107000D02*
D03*
Y99000D02*
D03*
Y91000D02*
D03*
X17744Y70326D02*
D03*
Y110326D02*
D03*
X99565Y82316D02*
D03*
X47744Y70326D02*
D03*
X99000Y52000D02*
D03*
X69000Y22000D02*
D03*
X142000Y328000D02*
D03*
X155000Y352000D02*
D03*
X143000Y386000D02*
D03*
X211929Y377484D02*
D03*
X224646Y366924D02*
D03*
X183185Y367242D02*
D03*
X166773Y318910D02*
D03*
X129424Y432309D02*
D03*
X93480Y379730D02*
D03*
X193676Y242804D02*
D03*
X188676Y284804D02*
D03*
X19369Y378734D02*
D03*
X69369Y438734D02*
D03*
X195369Y377734D02*
D03*
X189369Y438734D02*
D03*
X249369Y378734D02*
D03*
X189000Y17000D02*
D03*
X199000Y57000D02*
D03*
X179000Y107000D02*
D03*
X93480Y329730D02*
D03*
Y345730D02*
D03*
Y363730D02*
D03*
X135422Y50039D02*
D03*
X219119Y133984D02*
D03*
X239369Y68734D02*
D03*
X18480Y338730D02*
D03*
X159000Y77000D02*
D03*
M02*
