G04*
G04 #@! TF.GenerationSoftware,Altium Limited,Altium Designer,21.3.1 (25)*
G04*
G04 Layer_Color=16711935*
%FSLAX44Y44*%
%MOMM*%
G71*
G04*
G04 #@! TF.SameCoordinates,1899EECA-0796-468C-8384-63A2F62C21E4*
G04*
G04*
G04 #@! TF.FilePolarity,Positive*
G04*
G01*
G75*
%ADD10C,0.2540*%
D10*
X59500Y420000D02*
X59392Y422544D01*
X59068Y425070D01*
X58532Y427559D01*
X57786Y429994D01*
X56837Y432357D01*
X55690Y434631D01*
X54355Y436799D01*
X52841Y438847D01*
X51159Y440758D01*
X49320Y442520D01*
X47339Y444120D01*
X45229Y445546D01*
X43006Y446788D01*
X40686Y447837D01*
X38285Y448685D01*
X35820Y449327D01*
X33310Y449757D01*
X30773Y449973D01*
X28227D01*
X25689Y449757D01*
X23180Y449327D01*
X20715Y448685D01*
X18314Y447837D01*
X15994Y446788D01*
X13771Y445546D01*
X11661Y444120D01*
X9680Y442520D01*
X7841Y440758D01*
X6159Y438847D01*
X4645Y436799D01*
X3309Y434631D01*
X2163Y432357D01*
X1214Y429994D01*
X468Y427559D01*
X-69Y425070D01*
X-392Y422544D01*
X-500Y420000D01*
X-392Y417456D01*
X-69Y414930D01*
X468Y412441D01*
X1214Y410006D01*
X2163Y407643D01*
X3310Y405369D01*
X4645Y403201D01*
X6159Y401153D01*
X7841Y399242D01*
X9680Y397480D01*
X11661Y395880D01*
X13771Y394454D01*
X15994Y393212D01*
X18314Y392163D01*
X20715Y391315D01*
X23180Y390673D01*
X25689Y390243D01*
X28227Y390027D01*
X30773D01*
X33311Y390243D01*
X35820Y390673D01*
X38285Y391315D01*
X40686Y392163D01*
X43006Y393212D01*
X45229Y394454D01*
X47339Y395880D01*
X49320Y397480D01*
X51159Y399242D01*
X52841Y401153D01*
X54355Y403201D01*
X55690Y405369D01*
X56837Y407643D01*
X57786Y410006D01*
X58532Y412441D01*
X59068Y414930D01*
X59392Y417456D01*
X59500Y420000D01*
X260000D02*
X259892Y422544D01*
X259569Y425070D01*
X259032Y427559D01*
X258286Y429994D01*
X257337Y432357D01*
X256190Y434631D01*
X254855Y436799D01*
X253341Y438847D01*
X251659Y440758D01*
X249820Y442520D01*
X247839Y444120D01*
X245729Y445546D01*
X243506Y446788D01*
X241186Y447837D01*
X238785Y448685D01*
X236320Y449327D01*
X233811Y449757D01*
X231273Y449973D01*
X228727D01*
X226189Y449757D01*
X223680Y449327D01*
X221215Y448685D01*
X218814Y447837D01*
X216494Y446788D01*
X214271Y445546D01*
X212161Y444120D01*
X210180Y442520D01*
X208341Y440758D01*
X206659Y438847D01*
X205145Y436799D01*
X203810Y434631D01*
X202663Y432357D01*
X201714Y429994D01*
X200968Y427559D01*
X200431Y425070D01*
X200108Y422544D01*
X200000Y420000D01*
X200108Y417456D01*
X200431Y414930D01*
X200968Y412441D01*
X201714Y410006D01*
X202663Y407643D01*
X203810Y405369D01*
X205145Y403201D01*
X206659Y401153D01*
X208341Y399242D01*
X210180Y397480D01*
X212161Y395880D01*
X214271Y394454D01*
X216494Y393212D01*
X218814Y392163D01*
X221215Y391315D01*
X223680Y390673D01*
X226189Y390243D01*
X228727Y390027D01*
X231273D01*
X233811Y390243D01*
X236320Y390673D01*
X238785Y391315D01*
X241186Y392163D01*
X243506Y393212D01*
X245729Y394454D01*
X247839Y395880D01*
X249820Y397480D01*
X251659Y399242D01*
X253341Y401153D01*
X254855Y403201D01*
X256190Y405369D01*
X257337Y407643D01*
X258286Y410006D01*
X259032Y412441D01*
X259569Y414930D01*
X259892Y417456D01*
X260000Y420000D01*
Y30000D02*
X259892Y32544D01*
X259569Y35070D01*
X259032Y37559D01*
X258286Y39994D01*
X257337Y42357D01*
X256190Y44631D01*
X254855Y46799D01*
X253341Y48847D01*
X251659Y50758D01*
X249820Y52520D01*
X247839Y54120D01*
X245729Y55546D01*
X243506Y56788D01*
X241186Y57837D01*
X238785Y58685D01*
X236320Y59327D01*
X233811Y59757D01*
X231273Y59973D01*
X228727D01*
X226189Y59757D01*
X223680Y59327D01*
X221215Y58685D01*
X218814Y57837D01*
X216494Y56788D01*
X214271Y55546D01*
X212161Y54120D01*
X210180Y52520D01*
X208341Y50758D01*
X206659Y48847D01*
X205145Y46799D01*
X203810Y44631D01*
X202663Y42357D01*
X201714Y39994D01*
X200968Y37559D01*
X200431Y35070D01*
X200108Y32544D01*
X200000Y30000D01*
X200108Y27456D01*
X200431Y24930D01*
X200968Y22441D01*
X201714Y20006D01*
X202663Y17643D01*
X203810Y15369D01*
X205145Y13201D01*
X206659Y11153D01*
X208341Y9242D01*
X210180Y7480D01*
X212161Y5880D01*
X214271Y4454D01*
X216494Y3212D01*
X218814Y2163D01*
X221215Y1315D01*
X223680Y673D01*
X226189Y243D01*
X228727Y27D01*
X231273D01*
X233811Y243D01*
X236320Y673D01*
X238785Y1315D01*
X241186Y2163D01*
X243506Y3212D01*
X245729Y4454D01*
X247839Y5880D01*
X249820Y7480D01*
X251659Y9242D01*
X253341Y11154D01*
X254855Y13201D01*
X256190Y15369D01*
X257337Y17643D01*
X258286Y20006D01*
X259032Y22441D01*
X259569Y24930D01*
X259892Y27456D01*
X260000Y30000D01*
M02*
