G04*
G04 #@! TF.GenerationSoftware,Altium Limited,Altium Designer,21.3.1 (25)*
G04*
G04 Layer_Color=32896*
%FSLAX44Y44*%
%MOMM*%
G71*
G04*
G04 #@! TF.SameCoordinates,1899EECA-0796-468C-8384-63A2F62C21E4*
G04*
G04*
G04 #@! TF.FilePolarity,Positive*
G04*
G01*
G75*
%ADD13C,0.2500*%
D13*
X126023Y284952D02*
X125643Y284190D01*
X124500Y283048D01*
X132498D01*
X220435Y256999D02*
Y249000D01*
X215865D01*
X214989Y256999D02*
Y249000D01*
X213313Y256999D02*
Y249000D01*
Y256999D02*
X207981Y249000D01*
Y256999D02*
Y249000D01*
X205772Y256999D02*
Y249000D01*
X200439Y256999D02*
X205772Y251666D01*
X203867Y253571D02*
X200439Y249000D01*
X198649Y254333D02*
Y249000D01*
Y252809D02*
X197507Y253952D01*
X196745Y254333D01*
X195602D01*
X194841Y253952D01*
X194460Y252809D01*
Y249000D01*
X125500Y174334D02*
X133498Y178143D01*
X125500Y179666D02*
Y174334D01*
X152404Y271285D02*
X152023D01*
X151262Y270904D01*
X150881Y270523D01*
X150500Y269762D01*
Y268238D01*
X150881Y267477D01*
X151262Y267096D01*
X152023Y266715D01*
X152785D01*
X153547Y267096D01*
X154690Y267857D01*
X158498Y271666D01*
Y266334D01*
X151500Y165762D02*
X151881Y166904D01*
X152643Y167285D01*
X153404D01*
X154166Y166904D01*
X154547Y166143D01*
X154928Y164619D01*
X155309Y163477D01*
X156070Y162715D01*
X156832Y162334D01*
X157975D01*
X158736Y162715D01*
X159117Y163096D01*
X159498Y164238D01*
Y165762D01*
X159117Y166904D01*
X158736Y167285D01*
X157975Y167666D01*
X156832D01*
X156070Y167285D01*
X155309Y166523D01*
X154928Y165381D01*
X154547Y163857D01*
X154166Y163096D01*
X153404Y162715D01*
X152643D01*
X151881Y163096D01*
X151500Y164238D01*
Y165762D01*
X217758Y199165D02*
Y191166D01*
X220424Y199165D02*
X215092D01*
X214140D02*
X208808Y191166D01*
Y199165D02*
X214140Y191166D01*
X207018Y188500D02*
X200924D01*
X199896Y199165D02*
Y191166D01*
Y199165D02*
X194563Y191166D01*
Y199165D02*
Y191166D01*
X219027Y337500D02*
X214837D01*
X217122Y334453D01*
X215980D01*
X215218Y334072D01*
X214837Y333691D01*
X214456Y332549D01*
Y331787D01*
X214837Y330644D01*
X215599Y329883D01*
X216741Y329502D01*
X217884D01*
X219027Y329883D01*
X219408Y330263D01*
X219788Y331025D01*
X212666Y337500D02*
X209619Y329502D01*
X206572Y337500D02*
X209619Y329502D01*
X204782Y337500D02*
X200592D01*
X202878Y334453D01*
X201735D01*
X200973Y334072D01*
X200592Y333691D01*
X200212Y332549D01*
Y331787D01*
X200592Y330644D01*
X201354Y329883D01*
X202497Y329502D01*
X203639D01*
X204782Y329883D01*
X205163Y330263D01*
X205544Y331025D01*
X214380Y289000D02*
X217428Y296999D01*
X220474Y289000D01*
X219332Y291666D02*
X215523D01*
X206801Y295094D02*
X207182Y295856D01*
X207944Y296618D01*
X208706Y296999D01*
X210229D01*
X210991Y296618D01*
X211752Y295856D01*
X212133Y295094D01*
X212514Y293952D01*
Y292047D01*
X212133Y290905D01*
X211752Y290143D01*
X210991Y289381D01*
X210229Y289000D01*
X208706D01*
X207944Y289381D01*
X207182Y290143D01*
X206801Y290905D01*
X201888Y296999D02*
Y289000D01*
X204554Y296999D02*
X199222D01*
X198270Y294333D02*
Y289000D01*
Y292809D02*
X197127Y293952D01*
X196365Y294333D01*
X195223D01*
X194461Y293952D01*
X194080Y292809D01*
Y289000D01*
X215064Y275856D02*
X215826Y276618D01*
X216968Y276999D01*
X218492D01*
X219634Y276618D01*
X220396Y275856D01*
Y275094D01*
X220015Y274333D01*
X219634Y273952D01*
X218872Y273571D01*
X216587Y272809D01*
X215826Y272428D01*
X215445Y272047D01*
X215064Y271285D01*
Y270143D01*
X215826Y269381D01*
X216968Y269000D01*
X218492D01*
X219634Y269381D01*
X220396Y270143D01*
X213274Y272809D02*
X209846D01*
X208703Y273190D01*
X208322Y273571D01*
X207941Y274333D01*
Y275475D01*
X208322Y276237D01*
X208703Y276618D01*
X209846Y276999D01*
X213274D01*
Y269000D01*
X206151Y276999D02*
Y269000D01*
Y276999D02*
X203485D01*
X202343Y276618D01*
X201581Y275856D01*
X201200Y275094D01*
X200819Y273952D01*
Y272047D01*
X201200Y270905D01*
X201581Y270143D01*
X202343Y269381D01*
X203485Y269000D01*
X206151D01*
X199029Y274333D02*
Y269000D01*
Y272809D02*
X197886Y273952D01*
X197125Y274333D01*
X195982D01*
X195220Y273952D01*
X194839Y272809D01*
Y269000D01*
X214201Y235094D02*
X214582Y235856D01*
X215343Y236618D01*
X216105Y236999D01*
X217629D01*
X218390Y236618D01*
X219152Y235856D01*
X219533Y235094D01*
X219914Y233952D01*
Y232047D01*
X219533Y230905D01*
X219152Y230143D01*
X218390Y229381D01*
X217629Y229000D01*
X216105D01*
X215343Y229381D01*
X214582Y230143D01*
X214201Y230905D01*
Y232047D01*
X216105D02*
X214201D01*
X212373Y236999D02*
Y229000D01*
Y236999D02*
X207041Y229000D01*
Y236999D02*
Y229000D01*
X204831Y236999D02*
Y229000D01*
Y236999D02*
X202165D01*
X201023Y236618D01*
X200261Y235856D01*
X199880Y235094D01*
X199499Y233952D01*
Y232047D01*
X199880Y230905D01*
X200261Y230143D01*
X201023Y229381D01*
X202165Y229000D01*
X204831D01*
X217758Y219165D02*
Y211166D01*
X220424Y219165D02*
X215092D01*
X214140D02*
X208808Y211166D01*
Y219165D02*
X214140Y211166D01*
X207018Y208500D02*
X200924D01*
X199896Y214975D02*
X196468D01*
X195325Y215356D01*
X194944Y215737D01*
X194563Y216499D01*
Y217641D01*
X194944Y218403D01*
X195325Y218784D01*
X196468Y219165D01*
X199896D01*
Y211166D01*
X214201Y175094D02*
X214582Y175856D01*
X215343Y176618D01*
X216105Y176999D01*
X217629D01*
X218390Y176618D01*
X219152Y175856D01*
X219533Y175094D01*
X219914Y173952D01*
Y172047D01*
X219533Y170905D01*
X219152Y170143D01*
X218390Y169381D01*
X217629Y169000D01*
X216105D01*
X215343Y169381D01*
X214582Y170143D01*
X214201Y170905D01*
Y172047D01*
X216105D02*
X214201D01*
X212373Y176999D02*
Y169000D01*
Y176999D02*
X207041Y169000D01*
Y176999D02*
Y169000D01*
X204831Y176999D02*
Y169000D01*
Y176999D02*
X202165D01*
X201023Y176618D01*
X200261Y175856D01*
X199880Y175094D01*
X199499Y173952D01*
Y172047D01*
X199880Y170905D01*
X200261Y170143D01*
X201023Y169381D01*
X202165Y169000D01*
X204831D01*
X220503Y159165D02*
Y151166D01*
Y159165D02*
X217075D01*
X215933Y158784D01*
X215552Y158403D01*
X215171Y157641D01*
Y156880D01*
X215552Y156118D01*
X215933Y155737D01*
X217075Y155356D01*
X220503D01*
X217837D02*
X215171Y151166D01*
X213381Y159165D02*
X208049Y151166D01*
Y159165D02*
X213381Y151166D01*
X206259Y148500D02*
X200165D01*
X199136Y154975D02*
X195708D01*
X194566Y155356D01*
X194185Y155737D01*
X193804Y156499D01*
Y157641D01*
X194185Y158403D01*
X194566Y158784D01*
X195708Y159165D01*
X199136D01*
Y151166D01*
X220503Y136665D02*
Y128666D01*
Y136665D02*
X217075D01*
X215933Y136284D01*
X215552Y135903D01*
X215171Y135141D01*
Y134380D01*
X215552Y133618D01*
X215933Y133237D01*
X217075Y132856D01*
X220503D01*
X217837D02*
X215171Y128666D01*
X213381Y136665D02*
X208049Y128666D01*
Y136665D02*
X213381Y128666D01*
X206259Y126000D02*
X200165D01*
X199136Y136665D02*
Y128666D01*
Y136665D02*
X193804Y128666D01*
Y136665D02*
Y128666D01*
X219074Y116999D02*
X214884D01*
X217169Y113952D01*
X216027D01*
X215265Y113571D01*
X214884Y113190D01*
X214503Y112047D01*
Y111285D01*
X214884Y110143D01*
X215646Y109381D01*
X216788Y109000D01*
X217931D01*
X219074Y109381D01*
X219454Y109762D01*
X219835Y110524D01*
X212713Y116999D02*
X209666Y109000D01*
X206619Y116999D02*
X209666Y109000D01*
X204829Y116999D02*
X200639D01*
X202925Y113952D01*
X201782D01*
X201020Y113571D01*
X200639Y113190D01*
X200259Y112047D01*
Y111285D01*
X200639Y110143D01*
X201401Y109381D01*
X202544Y109000D01*
X203686D01*
X204829Y109381D01*
X205210Y109762D01*
X205591Y110524D01*
X241076Y100500D02*
Y94406D01*
X241457Y93264D01*
X241838Y92883D01*
X242600Y92502D01*
X243361D01*
X244123Y92883D01*
X244504Y93264D01*
X244885Y94406D01*
Y95168D01*
X239020Y98976D02*
X238258Y99357D01*
X237115Y100500D01*
Y92502D01*
X214683Y315094D02*
X215064Y315856D01*
X215826Y316618D01*
X216587Y316999D01*
X218111D01*
X218872Y316618D01*
X219634Y315856D01*
X220015Y315094D01*
X220396Y313952D01*
Y312047D01*
X220015Y310905D01*
X219634Y310143D01*
X218872Y309381D01*
X218111Y309000D01*
X216587D01*
X215826Y309381D01*
X215064Y310143D01*
X214683Y310905D01*
X210151Y316999D02*
X210912Y316618D01*
X211674Y315856D01*
X212055Y315094D01*
X212436Y313952D01*
Y312047D01*
X212055Y310905D01*
X211674Y310143D01*
X210912Y309381D01*
X210151Y309000D01*
X208627D01*
X207865Y309381D01*
X207104Y310143D01*
X206723Y310905D01*
X206342Y312047D01*
Y313952D01*
X206723Y315094D01*
X207104Y315856D01*
X207865Y316618D01*
X208627Y316999D01*
X210151D01*
X204475D02*
Y309000D01*
X199905D01*
X199029Y314333D02*
Y309000D01*
Y312809D02*
X197886Y313952D01*
X197125Y314333D01*
X195982D01*
X195220Y313952D01*
X194839Y312809D01*
Y309000D01*
M02*
