G04*
G04 #@! TF.GenerationSoftware,Altium Limited,Altium Designer,21.3.1 (25)*
G04*
G04 Layer_Color=2752767*
%FSLAX44Y44*%
%MOMM*%
G71*
G04*
G04 #@! TF.SameCoordinates,1899EECA-0796-468C-8384-63A2F62C21E4*
G04*
G04*
G04 #@! TF.FilePolarity,Positive*
G04*
G01*
G75*
%ADD36C,0.0508*%
%ADD37C,0.0677*%
D36*
X127368Y190218D02*
Y194282D01*
X131432D01*
Y190218D01*
X127368D01*
X152768Y177518D02*
Y181582D01*
X156832D01*
Y177518D01*
X152768D01*
X96500Y144468D02*
X94468Y148532D01*
X98532D01*
X96500Y144468D01*
Y299468D02*
X94468Y303532D01*
X98532D01*
X96500Y299468D01*
X32200Y158718D02*
X33216Y159734D01*
X34232D01*
X33216Y160750D01*
X34232Y161766D01*
X33216D01*
X32200Y162782D01*
X31184Y161766D01*
X30168D01*
X31184Y160750D01*
X30168Y159734D01*
X31184D01*
X32200Y158718D01*
X17000Y184118D02*
X18016Y185134D01*
X19032D01*
X18016Y186150D01*
X19032Y187166D01*
X18016D01*
X17000Y188182D01*
X15984Y187166D01*
X14968D01*
X15984Y186150D01*
X14968Y185134D01*
X15984D01*
X17000Y184118D01*
X32200Y259818D02*
X33216Y260834D01*
X34232D01*
X33216Y261850D01*
X34232Y262866D01*
X33216D01*
X32200Y263882D01*
X31184Y262866D01*
X30168D01*
X31184Y261850D01*
X30168Y260834D01*
X31184D01*
X32200Y259818D01*
X17000Y285218D02*
X18016Y286234D01*
X19032D01*
X18016Y287250D01*
X19032Y288266D01*
X18016D01*
X17000Y289282D01*
X15984Y288266D01*
X14968D01*
X15984Y287250D01*
X14968Y286234D01*
X15984D01*
X17000Y285218D01*
X152768Y202918D02*
Y206982D01*
X156832D01*
Y202918D01*
X152768D01*
X127368Y215618D02*
Y219682D01*
X131432D01*
Y215618D01*
X127368D01*
X152768Y228318D02*
Y232382D01*
X156832D01*
Y228318D01*
X152768D01*
X127368Y241018D02*
Y245082D01*
X131432D01*
Y241018D01*
X127368D01*
X152768Y253718D02*
Y257782D01*
X156832D01*
Y253718D01*
X152768D01*
X127368Y266418D02*
Y270482D01*
X131432D01*
Y266418D01*
X127368D01*
X237968Y132968D02*
X238984Y135000D01*
X237968Y137032D01*
X240000Y136016D01*
X242032Y137032D01*
X241016Y135000D01*
X242032Y132968D01*
X240000Y133984D01*
X237968Y132968D01*
Y152968D02*
X238984Y155000D01*
X237968Y157032D01*
X240000Y156016D01*
X242032Y157032D01*
X241016Y155000D01*
X242032Y152968D01*
X240000Y153984D01*
X237968Y152968D01*
Y172968D02*
X238984Y175000D01*
X237968Y177032D01*
X240000Y176016D01*
X242032Y177032D01*
X241016Y175000D01*
X242032Y172968D01*
X240000Y173984D01*
X237968Y172968D01*
Y192968D02*
X238984Y195000D01*
X237968Y197032D01*
X240000Y196016D01*
X242032Y197032D01*
X241016Y195000D01*
X242032Y192968D01*
X240000Y193984D01*
X237968Y192968D01*
Y232968D02*
X238984Y235000D01*
X237968Y237032D01*
X240000Y236016D01*
X242032Y237032D01*
X241016Y235000D01*
X242032Y232968D01*
X240000Y233984D01*
X237968Y232968D01*
Y212968D02*
X238984Y215000D01*
X237968Y217032D01*
X240000Y216016D01*
X242032Y217032D01*
X241016Y215000D01*
X242032Y212968D01*
X240000Y213984D01*
X237968Y212968D01*
X228984Y418984D02*
Y417968D01*
X231016D01*
Y418984D01*
X232032D01*
Y421016D01*
X231016D01*
Y422032D01*
X228984D01*
Y421016D01*
X227968D01*
Y418984D01*
X228984D01*
Y28984D02*
Y27968D01*
X231016D01*
Y28984D01*
X232032D01*
Y31016D01*
X231016D01*
Y32032D01*
X228984D01*
Y31016D01*
X227968D01*
Y28984D01*
X228984D01*
X28984D02*
Y27968D01*
X31016D01*
Y28984D01*
X32032D01*
Y31016D01*
X31016D01*
Y32032D01*
X28984D01*
Y31016D01*
X27968D01*
Y28984D01*
X28984D01*
X94988Y401888D02*
X96004D01*
X97020Y402904D01*
X98036Y401888D01*
X99052D01*
Y402904D01*
X98036Y403920D01*
X99052Y404936D01*
Y405952D01*
X98036D01*
X97020Y404936D01*
X96004Y405952D01*
X94988D01*
Y404936D01*
X96004Y403920D01*
X94988Y402904D01*
Y401888D01*
X120388D02*
X121404D01*
X122420Y402904D01*
X123436Y401888D01*
X124452D01*
Y402904D01*
X123436Y403920D01*
X124452Y404936D01*
Y405952D01*
X123436D01*
X122420Y404936D01*
X121404Y405952D01*
X120388D01*
Y404936D01*
X121404Y403920D01*
X120388Y402904D01*
Y401888D01*
X28984Y418984D02*
Y417968D01*
X31016D01*
Y418984D01*
X32032D01*
Y421016D01*
X31016D01*
Y422032D01*
X28984D01*
Y421016D01*
X27968D01*
Y418984D01*
X28984D01*
X237968Y112968D02*
X238984Y115000D01*
X237968Y117032D01*
X240000Y116016D01*
X242032Y117032D01*
X241016Y115000D01*
X242032Y112968D01*
X240000Y113984D01*
X237968Y112968D01*
Y332968D02*
X238984Y335000D01*
X237968Y337032D01*
X240000Y336016D01*
X242032Y337032D01*
X241016Y335000D01*
X242032Y332968D01*
X240000Y333984D01*
X237968Y332968D01*
Y312968D02*
X238984Y315000D01*
X237968Y317032D01*
X240000Y316016D01*
X242032Y317032D01*
X241016Y315000D01*
X242032Y312968D01*
X240000Y313984D01*
X237968Y312968D01*
Y292968D02*
X238984Y295000D01*
X237968Y297032D01*
X240000Y296016D01*
X242032Y297032D01*
X241016Y295000D01*
X242032Y292968D01*
X240000Y293984D01*
X237968Y292968D01*
Y272968D02*
X238984Y275000D01*
X237968Y277032D01*
X240000Y276016D01*
X242032Y277032D01*
X241016Y275000D01*
X242032Y272968D01*
X240000Y273984D01*
X237968Y272968D01*
Y252968D02*
X238984Y255000D01*
X237968Y257032D01*
X240000Y256016D01*
X242032Y257032D01*
X241016Y255000D01*
X242032Y252968D01*
X240000Y253984D01*
X237968Y252968D01*
X142968Y115000D02*
X145000Y117032D01*
X147032Y115000D01*
X145000Y112968D01*
X142968Y115000D01*
Y107438D02*
X145000Y109470D01*
X147032Y107438D01*
X145000Y105406D01*
X142968Y107438D01*
Y100000D02*
X145000Y102032D01*
X147032Y100000D01*
X145000Y97968D01*
X142968Y100000D01*
Y92000D02*
X145000Y94032D01*
X147032Y92000D01*
X145000Y89968D01*
X142968Y92000D01*
X68968Y115000D02*
X71000Y117032D01*
X73032Y115000D01*
X71000Y112968D01*
X68968Y115000D01*
Y107000D02*
X71000Y109032D01*
X73032Y107000D01*
X71000Y104968D01*
X68968Y107000D01*
Y99000D02*
X71000Y101032D01*
X73032Y99000D01*
X71000Y96968D01*
X68968Y99000D01*
Y91000D02*
X71000Y93032D01*
X73032Y91000D01*
X71000Y88968D01*
X68968Y91000D01*
X15712Y70326D02*
X17744Y72358D01*
X19776Y70326D01*
X17744Y68294D01*
X15712Y70326D01*
Y110326D02*
X17744Y112358D01*
X19776Y110326D01*
X17744Y108294D01*
X15712Y110326D01*
X97533Y82316D02*
X99565Y84348D01*
X101597Y82316D01*
X99565Y80284D01*
X97533Y82316D01*
X45712Y70326D02*
X47744Y72358D01*
X49776Y70326D01*
X47744Y68294D01*
X45712Y70326D01*
X96968Y52000D02*
X99000Y54032D01*
X101032Y52000D01*
X99000Y49968D01*
X96968Y52000D01*
X66968Y22000D02*
X69000Y24032D01*
X71032Y22000D01*
X69000Y19968D01*
X66968Y22000D01*
X139968Y328000D02*
X142000Y330032D01*
X144032Y328000D01*
X142000Y325968D01*
X139968Y328000D01*
X152968Y352000D02*
X155000Y354032D01*
X157032Y352000D01*
X155000Y349968D01*
X152968Y352000D01*
X140968Y386000D02*
X143000Y388032D01*
X145032Y386000D01*
X143000Y383968D01*
X140968Y386000D01*
X209897Y377484D02*
X211929Y379516D01*
X213961Y377484D01*
X211929Y375452D01*
X209897Y377484D01*
X222614Y366924D02*
X224646Y368956D01*
X226678Y366924D01*
X224646Y364892D01*
X222614Y366924D01*
X181153Y367242D02*
X183185Y369274D01*
X185217Y367242D01*
X183185Y365210D01*
X181153Y367242D01*
X164741Y318910D02*
X166773Y320942D01*
X168805Y318910D01*
X166773Y316878D01*
X164741Y318910D01*
X127392Y432309D02*
X129424Y434341D01*
X131456Y432309D01*
X129424Y430277D01*
X127392Y432309D01*
X91448Y379730D02*
X93480Y381762D01*
X95512Y379730D01*
X93480Y377698D01*
X91448Y379730D01*
X191644Y242804D02*
X193676Y244836D01*
X195708Y242804D01*
X193676Y240772D01*
X191644Y242804D01*
X186644Y284804D02*
X188676Y286836D01*
X190708Y284804D01*
X188676Y282772D01*
X186644Y284804D01*
X17337Y378734D02*
X19369Y380766D01*
X21401Y378734D01*
X19369Y376702D01*
X17337Y378734D01*
X67337Y438734D02*
X69369Y440766D01*
X71401Y438734D01*
X69369Y436702D01*
X67337Y438734D01*
X193337Y377734D02*
X195369Y379766D01*
X197401Y377734D01*
X195369Y375702D01*
X193337Y377734D01*
X187337Y438734D02*
X189369Y440766D01*
X191401Y438734D01*
X189369Y436702D01*
X187337Y438734D01*
X247337Y378734D02*
X249369Y380766D01*
X251401Y378734D01*
X249369Y376702D01*
X247337Y378734D01*
X186968Y17000D02*
X189000Y19032D01*
X191032Y17000D01*
X189000Y14968D01*
X186968Y17000D01*
X196968Y57000D02*
X199000Y59032D01*
X201032Y57000D01*
X199000Y54968D01*
X196968Y57000D01*
X176968Y107000D02*
X179000Y109032D01*
X181032Y107000D01*
X179000Y104968D01*
X176968Y107000D01*
X91448Y329730D02*
X93480Y331762D01*
X95512Y329730D01*
X93480Y327698D01*
X91448Y329730D01*
Y345730D02*
X93480Y347762D01*
X95512Y345730D01*
X93480Y343698D01*
X91448Y345730D01*
Y363730D02*
X93480Y365762D01*
X95512Y363730D01*
X93480Y361698D01*
X91448Y363730D01*
X133390Y50039D02*
X135422Y52071D01*
X137454Y50039D01*
X135422Y48007D01*
X133390Y50039D01*
X217087Y133984D02*
X219119Y136016D01*
X221151Y133984D01*
X219119Y131952D01*
X217087Y133984D01*
X237337Y68734D02*
X239369Y70766D01*
X241401Y68734D01*
X239369Y66702D01*
X237337Y68734D01*
X16448Y338730D02*
X18480Y340762D01*
X20512Y338730D01*
X18480Y336698D01*
X16448Y338730D01*
X156968Y77000D02*
X159000Y79032D01*
X161032Y77000D01*
X159000Y74968D01*
X156968Y77000D01*
D37*
X68032Y281150D02*
X66628Y283083D01*
X64356Y282344D01*
Y279956D01*
X66628Y279217D01*
X68032Y281150D01*
Y166850D02*
X66628Y168783D01*
X64356Y168044D01*
Y165656D01*
X66628Y164918D01*
X68032Y166850D01*
M02*
