M48
;Layer_Color=9474304
;FILE_FORMAT=4:4
METRIC,LZ
;TYPE=PLATED
T1F00S00C0.3000
T2F00S00C0.8900
T3F00S00C0.9000
T4F00S00C1.0000
T5F00S00C1.0500
T6F00S00C1.6000
T7F00S00C3.0000
T8F00S00C3.2500
%
T01
X00017744Y00070326
X00047744
X00071Y00091
Y00099
Y00107
Y00115
X00017744Y00110326
X00099565Y00082316
X00099Y00052
X00135422Y00050039
X00069Y00022
X00189Y00017
X00199Y00057
X00239369Y00068734
X00159Y00077
X00145Y00092
Y001
Y00107438
Y00115
X00179Y00107
X00219119Y00133984
X00193676Y00242804
X00188676Y00284804
X00166773Y0031891
X00155Y00352
X00183185Y00367242
X00195369Y00377734
X00211929Y00377484
X00224646Y00366924
X00249369Y00378734
X00143Y00386
X00189369Y00438734
X00129424Y00432309
X00069369Y00438734
X0009348Y0037973
Y0036373
Y0034573
Y0032973
X00142Y00328
X0001848Y0033873
X00019369Y00378734
T02
X000322Y0016075
X00017Y0018615
X000322Y0026185
X00017Y0028725
T03
X001548Y0017955
Y0020495
Y0023035
Y0025575
X001294Y0024305
Y0021765
Y0019225
Y0026845
T04
X0024Y00115
Y00135
Y00155
Y00175
Y00195
Y00215
Y00235
Y00255
Y00275
Y00295
Y00315
Y00335
T05
X0009702Y0040392
X0012242
T06
X000965Y001465
Y003015
T07
X0003Y0003
X0023
Y0042
X0003
T08
X00066Y0016685
Y0028115
M30
